<mxfile host="app.diagrams.net" modified="2023-04-06T11:32:22.820Z" agent="Mozilla/5.0 (Macintosh; Intel Mac OS X 10.15; rv:109.0) Gecko/20100101 Firefox/111.0" etag="GIDz1_OlgG1yrCz9ZFi8" version="21.1.4" type="github">
  <diagram name="Page-1" id="wJ5RlKvriTrJNfG5pY4U">
    <mxGraphModel dx="954" dy="617" grid="0" gridSize="10" guides="1" tooltips="1" connect="1" arrows="1" fold="1" page="0" pageScale="1" pageWidth="850" pageHeight="1100" math="0" shadow="0">
      <root>
        <mxCell id="0" />
        <mxCell id="1" parent="0" />
        <mxCell id="j7cPLdc6rI8j60_SisIu-1" value="" style="shape=image;verticalLabelPosition=bottom;labelBackgroundColor=default;verticalAlign=top;aspect=fixed;imageAspect=0;image=data:image/png,iVBORw0KGgoAAAANSUhEUgAAAbgAAACUCAYAAADh0zxKAAABgGlDQ1BJQ0MgUHJvZmlsZQAAKJFjYGCqSCwoyGFhYGDIzSspCnJ3UoiIjFJgv8PAzcDDIMRgxSCemFxc4BgQ4MOAE3y7xsAIoi/rgsxqOqd2d+pGwehjat+yq+1cc3DrAwPulNTiZAYGRg4gOyWlODkXyAbp0UsuKCoBsucA2brlJQUg9hkgW6QI6EAg+wGInQ5hfwGxk8BsJg6wmpAgZyBbBsgWSIKwdUDsdAjbBsROzkhMAbJB/tKBuAEMuIJdFAzNDXx1HQk4nFSQm1MKswMUWjypeaHBQFoIiGUYghlcGBQYDBnMGQwYfBl0GYCWl6RWlIAUO+cXVBZlpmeUKDgCQzdVwTk/t6C0JLVIR8EzL1lPR8HIwNAApA4UbxDjPweBbWAUO48Qy5rMwGDxhoGBuQohlrKcgWGLPQODeDBCTH020EnvGRh2hBckFiXCHc/4jYUQvzjN2AjC5nFiYGC99///ZzUGBvZJDAx/J/7//3vR//9/FwPtv8PAcCAHALbUa30s2MP4AAAAemVYSWZNTQAqAAAACAAEAQYAAwAAAAEAAgAAARIAAwAAAAEAAQAAASgAAwAAAAEAAgAAh2kABAAAAAEAAAA+AAAAAAADkoYABwAAABIAAABooAIABAAAAAEAAAG4oAMABAAAAAEAAACUAAAAAEFTQ0lJAAAAU2NyZWVuc2hvdATV8AUAAALvaVRYdFhNTDpjb20uYWRvYmUueG1wAAAAAAA8eDp4bXBtZXRhIHhtbG5zOng9ImFkb2JlOm5zOm1ldGEvIiB4OnhtcHRrPSJYTVAgQ29yZSA2LjAuMCI+CiAgIDxyZGY6UkRGIHhtbG5zOnJkZj0iaHR0cDovL3d3dy53My5vcmcvMTk5OS8wMi8yMi1yZGYtc3ludGF4LW5zIyI+CiAgICAgIDxyZGY6RGVzY3JpcHRpb24gcmRmOmFib3V0PSIiCiAgICAgICAgICAgIHhtbG5zOnRpZmY9Imh0dHA6Ly9ucy5hZG9iZS5jb20vdGlmZi8xLjAvIgogICAgICAgICAgICB4bWxuczpleGlmPSJodHRwOi8vbnMuYWRvYmUuY29tL2V4aWYvMS4wLyI+CiAgICAgICAgIDx0aWZmOkNvbXByZXNzaW9uPjE8L3RpZmY6Q29tcHJlc3Npb24+CiAgICAgICAgIDx0aWZmOlJlc29sdXRpb25Vbml0PjI8L3RpZmY6UmVzb2x1dGlvblVuaXQ+CiAgICAgICAgIDx0aWZmOlBob3RvbWV0cmljSW50ZXJwcmV0YXRpb24+MjwvdGlmZjpQaG90b21ldHJpY0ludGVycHJldGF0aW9uPgogICAgICAgICA8dGlmZjpPcmllbnRhdGlvbj4xPC90aWZmOk9yaWVudGF0aW9uPgogICAgICAgICA8ZXhpZjpQaXhlbFhEaW1lbnNpb24+NDQwPC9leGlmOlBpeGVsWERpbWVuc2lvbj4KICAgICAgICAgPGV4aWY6VXNlckNvbW1lbnQ+U2NyZWVuc2hvdDwvZXhpZjpVc2VyQ29tbWVudD4KICAgICAgICAgPGV4aWY6UGl4ZWxZRGltZW5zaW9uPjE0ODwvZXhpZjpQaXhlbFlEaW1lbnNpb24+CiAgICAgIDwvcmRmOkRlc2NyaXB0aW9uPgogICA8L3JkZjpSREY+CjwveDp4bXBtZXRhPgroKhEnAABAAElEQVR4Aex9B2DURfb/2930nhBCS+i9ShGkCaIiNiynnv3s9ax31p/e2fUs2BWxY8deUFEpgggC0nuvSSAJ6X03+/983uwkm1Ck/w1+B7LfNvXNzPvMe/NmxuXzFvjFcQ4FHAo4FHAo4FDgMKOA+zArj1MchwIOBRwKOBRwKKAUcADOaQgOBRwKOBRwKHBYUsABuMOyWp1CORRwKOBQwKGAA3BOG3Ao4FDAoYBDgcOSAg7AHZbV6hTKoYBDAYcCDgUcgHPagEMBhwIOBRwKHJYUOKAA5/fXrDjgvf4J3lUJfmu+HZaUdArlUMChgEMBhwI7UMDiQjUmBLCBHu23HQIdoBch+xNP3cy5XK7qDPNeHcHN7RdXFb65HJDbH3o7YR0KOBRwKFDfKGBxoRoTAgUgfgR/s3hS19/+lHefAM5mzGZOxIWMGjS2mbOZFciICm4EOfxznEMBhwIOBRwK/HUoYPGiGhMCRbf4EXy1VLFh7PO+XvcK4GwGbYZqEqU6EgBXRUUkpTS/VPmNNEfgc/Ee3wiEjnMo4FDAoYBDgb8SBQzvN6Al4rbaPQg//iqo+NzuaknOUiUYY3i/r26PAS4YUe19la9KXG4DXlXUqwLEqqp84sP7Sp9X/L5K8bmqFPQc6W1fq8gJ51DAoYBDgfpMAYo9RACXeFwe8XhCJMQdolfih8tfhXu34oc+A88sxrDUFJ72FeP+EOCYEF0wovLZvvf5fFLl80t5ZaVUVJRKeVWJeKsqxCeVkOKoYyXAAQjxz3EOBRwKOBRwKPBXo4ABOGrwAHH458a/MAnzhElEaLSE4hoSGgrQo7AE2uBKZzGG4GZAbu8xxLWnmy0zMUpobiAtJTcfcqLAVl4uJeUFALZi8brKA9Iacqd5MRnir4FJZttxDgUcCjgUcCjwV6JAXQzwAz9U6PGHSKgrXKI88RIVHiWh4aEqTBmJDjAC2w0FRqAcMWhv1ZW7BDgbmUVRWxlUP1ZBb+qt9EpxWZEUefOhhixDZo0cyfk2yJyaKRvGuToUcCjgUMChgEMBSwFFCPxQtlPxB0AX7oqWmNA4iYiKFI8bkh7+8F+lN4azWsS9AbldAhwjDJba7H2lt1LKyiqksCxPyqUAqapMWS2wqTAaADk/ri5naQBJ6TiHAg4FHAr8pSlg5uECwk/gYlR7fOByab+EVIVJVEiSxETE1JLmLOH2FuR2CnB1pTZG7qXkhr+S4mIpqMiRSleJGpiohSQ9AMhUIelIcKSG4xwKOBRwKOBQYBcUsIKQXRutmj/Kc8ARP9ZMR7mSJC4qQcLDoLKkNOdRdNHY9kaC28HIhODGCAhmnG/js6olYRVZWlwKcMuWSncpJgmRIBdv2/VtCmxIX/NRk5ldlM957VDAoYBDAYcCf1EK6PwbYMLMw4EIuFeNH3EEmFJalStSIhInALlwfKvyVFvsc221dX8EdjsAXLUISIuWgGFJVZVXykrKJJ+SmwU35IhoayW4fTXjtBl1rg4FHAo4FHAo8BekAKexAtNZgByDKQC5EgU5vyS4EkXCaH8JsUotLY2x455QKggLA3NuAVBToIPVpBfLACoqfFIAS8lKFyQ3tWYh9BpJj8jrgNuekNrx41DAoYBDAYcCO1KAIIK3CnI0VzSCk8tdBUmuQIpLS6BFxPpqLgqHU5AjEsLtbDpNPwR+agGcBTVGoEsBEKGP1pLFRVIBgxIsOFf9KMGNmUE+HOdQwKGAQwGHAg4F9p8CCnIUmIz2ULWDbq+UVOZJWWkZAI6biNSAjp1O213C1QCn6kigIsGNjou0qyDBlZZXKIoK0NSKkcyAIq7xurv4nW8OBRwKOBRwKOBQYM8oUAvkaIXvEq+7XIoriqTK64PEBltLQJEVxvZYglPQ0iwY1GLAKi/m3iqLxYcEqIfUyPS6Z3l1fDkUcCjgUMChgEOBvaIAIQh/XGJGZSGFq3JfkZSWYSMRP3bOIsgFCWO7A7naEpwiI8008YcIKrwVUoGtt/xY60Zx0Vq8UIBznEMBhwIOBRwKOBQ4KBQgsAFnAEOKO1WeCmwHWSo+L8HNpGiluBrhbMec1AAcQM3FOTaENupJn5RXcE/JcgpvcExJU9sxFueNQwGHAg4FHAo4FDhQFCDmqFBFTKKqUqTSXyIVlQEJDnhl3R9KcPTAuTdGwkV2fPZWQiysLMNSNyO9KWoq0NlonatDAYcCDgUcCjgUOEgUUIGKoETByoUtIb2w6K8ARhHkjJZRLSqDwK5uTlSCs6KeyoQ00kRgHyb0fFWVRqpThSiC0nLScQ4FHAo4FHAo4FDgoFOAeAPhSyUv4BL0icQkf8CSksYmdNYw0jzV/tWF3laC49UgIzZT5lluOPKGcbuIkAqFFAsdkKtNQufJoYBDgcOdAsojwfooTDhu5xQgVlAI0g1ADhROIFLSXIUwSHSVvgocx1YlIXjp8vwxHhmAA4DZY3CYdZXgEIkf1ituzbCp2d1N5u28yM5bhwIOBRwK1F8KUG4wmjIzdePg267rkkDEVWY0RjQDAiLefroAwVELiIgGJjzNxmgZNSUFwF3XigKc6jGJiMidn1YqjAB7UephpaxdneQ7AJndz7I6wR0KOBRwKHAoKEAGTafMGjyQpukeWOGFS4iyWg+Az3xVb3/ZHw4ASAcvfjEzBkMQn9LCqBUBHRwgqGi3jyQiYGpVICYFM6/OwRHs6Gw97Sr26r0oVQQkyDEziJBaSW5dAsgLhOXVAbldEdJ571DAocDhQQFim2XKnLLxYIAf4wqT3KoyWejdJiuxfVSOnwZ4hjca6eLwKPvelEKxAbSJdoVIK3eMdPIkSQscXFoOqKsg0BGciCAWV/Ym8iC/BnmISwQ5PBHbDOm1nnYHctUAFxQfAhHoEEsgkuoEgj059w4FHAo4FDjMKGCYMQoFpod9MyQMElsZbBEmVG6UL8vXyRxfvmzHFytBOIN+0wCisRVya3e4nBSaJqeGt5I0V6yU+Sv1Yy3hyXjfq99qscoCJvCJ//bE7RTgzIgEViWBmKsT2JMYHT8OBRwKOBSopxQwzJgarCqJcIXK1qpieahsnnxdmY4SubGzvVsagZl7ILUYBrlnjLaekuMPsk1kANSABOUAneWQcBeVLZcvKjbJnZHd5fiQ5lKMwQE9WIn4DyLco8+UCvc0vp0CnANoe0Rnx5NDAYcChxEFrKqLDDsMAJbjL5UHSufIeKglm0BFCW2czjUR0jjnBGuFw6j0+1IUU34alhBIEgH+IS6PrKgqlbtK54onUmQIJLpSvxfGisbvngLTvuRmZ2HU+H9nH5x3DgUcCjgU+CtRwEhvsCgHw+YiqUchuY33ZkpTdyiOCsPJKmDStEwnEBpwswBnr38latkyU4LjPU6gwW8ZJN+m7hDJxBmiD5ctkGW+HAkH6BnVr5mPO5RUcgDuUFLbScuhgEOBPy0FyITJqqmanOZNl08qM6SRKxxHhdGK0qjFfGqf4OLRm4E/Ki55z+tf6c+W2dCFgK90gJFiGejYjJKcr1TeL1+jRjrQKQaA8NBW/18U4MyoQxu0jj4M0e2zvR7aqnBScyjgUOD/KwXAC3igM40jfqrcDFGNS6WMKpLvKaGQiTtuRwqQLtX0wSCgEn/RALlvvRmy2peLQUMIBgkHdi5ux1zs+OaQARxBY0/cnvrbk7h27cc0UqsPrsKidv7R2Xf2auM4NPkyqe1pWnvqz5bBuToUcCiwawpwnVUomHIG5pCWe/Ow5s2o1hjCrRLKrsM6X4z0aiU5bpAcizm57KoK+c23DTuPAGrAdg81z9qpkcmBrCwV+oFtVr+9qwJaQLH+bB7se/t8YK5mJMG8eEI8EhYWqtFW4PRynmBu82Dzymf7jiM6rakDk5FasQSnx3v7XMsTUzeZqM6T/W7f22fn6lDAocCeU4BDcA8Ycba/WFb5KyQO/cyHP0oBkOX0uuexHVqfLvILyxcCwgSNYuggTPEXZWH5OH9onP3O8jGIXgNxBLzs9YWSHA1w3FTlMl3EtxbrBr3ctJ8b+ePfoeRTBx3gAA2krTJrt8cjoaFIUglem3Zk5tz/kqcYkMZuLDKn4/uDQRBKbCHIS8aWrbJi6RqmJK3aNJcWrdOQB6948C00xOxaUImDX7n5dN18mLwxl8jwAXA2fsZLOnlALza82g4NFKvwKysxDe7zKZ2Cw9n72mH27WlntLfv7HXfYv7jUHXj12cEYydmZ9ZG8sfROD4cCuwxBdiLyXsqoaIshuVftNvsV/JnVkuyLygII+PsI3T6yx/zqNaffKCBjIIbrgzH8rI/EejIN7i6z3Bd3OyHo7RLSU4BF2kVQ4pj+lxfjZT2I+a9D3rQAY6Izf8kYFFhsWRlZhPeA8XEV6A6tAISFh4uDRsmSlx8nJ5DV1leUc286zK7vS9m3RBsDFUSHhEmi+Yvl6cfHQ0PLrn4qnOkfac2CmZ5OXmSm5OveuOUxskSGxclVXYX60BDMmBS07D2F1xsA2Vut4JOBQVFOidAYtlvboj90bHR0jClgURFhEtZaRnyCzNc7joTaOT7mw+mb2nOqykuG6epR3u1fvTDAfyx8Zq0g9JF+exI9dB2kwNYOCeqPzUFONdGSYPiB9VsvCUDO5ggZ9u0pkTgCfTjYEIReKzkFfy+Cn5VKtNOynybPur34CaAVi7wLW6Yz92p+Mob4ZGKCGqt/BJeCo1VBZa0IzzLzivd/vAQSyt71Q38CXmkrYle0zgUPwcd4FgIEi0czHjWzPly/+1P6MbObu57iW8oMqkJoKuSmNgoGTxsgJxyxnHSqnVzPfuHhN4fYu+ciKhwNF4qHZgL1imSwdYFbAR+iYiIkE8++Frefe0Tyc7OldvuvV7+AfDLycqV0DBIoSHh4g5xqzqzooInLjDw/jvbuMLDw+Tzj8bLR+9+JVFRWEwSoJSmEKBV09TGcvyJQ+SEU4cAfOMU5A4krRgX88MrVbhU5VLqrcDAw+bzQJW7LuVs2pT4wyDJujxu8YLOlZCsWVFkCKbC6oZ0nh0K7B8F2P8NMJDvBCwDyaMOgmM7puqzGqSYBpmi7gOMW7R1LlmgI7gpXuE7pSMLFORfXvAifzj6CTy50UfdRZXiKcMCa40Hkhm+VcSEiQ+8yw0eF7dwq0T9tln86FfFg5tLaZskkQrESqOagOZME93Hn7pAzP6svDawT+U+RrtPwQ46wLFo3BWAV7qQMKN680LqKC4s0XcqfZCJQeX2+YffyJyZ8+T/HrxZOkCaKgdDpQON+FvNXPlU11nGaK91v9d6RnymQpEzlShxRSLcaJrP5WggZUh7e852lTyNhCRSWlwuazM2Sfa2HElMjJe2HVrtNk+10tzNgzYCU0j4MsBCNWUo6FVcXIr8VCgFeeqDxxMiG9dvljHPj5WF85fKXfffJFHREaparZUE42OHreP2iD6BMFSDbt6UAXDfDvq4pXO3dhIC1a01yrFR/1Gc/E5nwdGGq3u18fBKiZ8q5FxI042aNFT1MfNTt0w2TN24gp/Z/jCUCX5l6nsX9Knl0Xn4y1CAUkyNC76veXsg7tgPCGxqvELQwh/BrCoMoBMdhiRg8ILTqznwJ5iplIbvleRVUJ1WhGJwju8heI7MKZHohZkStiJbQpZliWtzobiyy7C9CMLDn8RhkXqzGPF1TRHX9lIJ+Wy5+LfkIQ2PxKfGStSVvSXr4h7ih3+mQ2f7qz7s5Q+BuC7IaRQkp4l+L2Pcd+8HHeDIVCwD4pXMmaey9uzTTU4/50ShKrISFbVs8UqZPnWWFBeVyOaNGfL+25/LPQ/fHCA0qeJWpmqlCqUVXusXVjritt941RMRAmmzsdAn31tVnoIuGLb6C1SqnmOEuAi+zVIbyRG9u0iz5k0ktUUTqAIrMGcXKsuXrpZH//OcMt4zzztFOnZpJ2Vl5YiXaZD3orz8F5Qnvrf54/wZ88Jn+6eFoKeAo2qEqkg6Zu3ci06X7kd0BOBWSgXSmg1J+PdZC1WimTZ5pnTEQODyf14khRUFmj7DEYzI0pke88a0rCM4WVrZfNln0of3/OcBkOVuy5NH731W1qxeL126d5QHn7wT8UGnHOQYR3CcO6M346Sz+TBHXqDzBujAb4zD5icmLlomfDNFnnz4JYmMjJCLrjhb2rRrKZVoO8xjMCOyaSvNUEzNP9Kzda3PeM96sX6D80HScORKCtl8Mj+OcyhwoClg2xfbnxt9k/zHRwkMasMqqArDtxRKs8VbJWRNtnjW54vklou/DGpE9A2BFkUAfv6UCPG1TJSKzk3EU1AiEW/PF/+KHJECaDioeYQ3zqvZfkj+4lqE4N+sVjHQH4G23iRWP/tzSyV01AxJahor249rI/5SHnJdw0sPdPkPdXwHHeDIVMgsLUMhM+EoPAVzSMeNGCylJaX67fRzTpDvvpoE8HgWKsIwWbt6A0AkS9LSmphjyiHehkF1GAFVJ+ecqEogWFbh+PISgCKdZY68j4Rqj6q1Sh8qXZmdYcrFRcXKxIxfMNQA82c+tdEhgxUAsxGnHStnXXCahCKN/IJ8KSwokKSkRGW2pZj38kCSikYasfExEgqVYnlZmUSAEZOpkokyT2zMttwWaGLjsS0pwMeHlf4lxWWGoZLBKntlzlkO/hhAYFydu7aTYSOO1jgpwZ3x95Mgvb0jb4z+UKJjomX+3CVSmFcA6ThUaUdgKi8th0RMtW84JDsfJGF0FOSHf1SBhiOvXhiqcF7RDX19aEioFJeWqipQQQ4dj/SLjo4Wlpf5J+3j42IkPCoCeYdfhKdfH9IJhV/SvAr01roJgGAwvVk2mwca+ERGxSodqnBEE8sfBmm1EsY8RYVFEhsbQyJIYX4R5mVj4TdCEhLiALpuDDZMWRgf6UM1blhYGNoJTvvFP9ZNCOqtqLgIbQUqG+QRCeOLQNKN1IGK11upUnp0TAQ+VaEdmrqw9cW4HedQ4EBRgO2eju2LXZv9qQrNsjwhUqLTCyRuwiYJm7xO3HPTxb+pAB7KAUZAK6wfU7UheQLj4HwaLDxDYAQTGh2P75DSoF50xcNvEtGNzIRpMUAdF8iDvkWfZYdwJYRJVW6FRDw9Q0J7NZbK2AhEiTQOE5A76ABXh8TK4Eh6SkmFUEGVAeBIdzLMrkd0kqbNGsm6dZshqVRIfm6+tGjRVMNExUTJpg3pMnXiDJWeaOlIxtdvUC/pfWR3VWXaRuSBpLUCktbcOQsla2uOxk0G3LtvDxk49EgwYax7w78dmgDrHJkhYM2ZsUDmz1mszHbICQOlJ6S5H7+fKjOmzdY5RALEsmWr5JXnxoKheqRXn64y57cFmhaNQE45/XiJiA4XMm86gg6Z/Sfvf41rqc43DjthsCQlJ8IP1G5GYFO//DFtkZ0BC08BMNW0QscgYA0edpR8inm6/NwCTbMIcUdFR8lH73whxQXF0q1XF+nRq5N8NPYzWbFsjVx4+VnSvkNrdDC3bN2WJZN/mC4b1m7SsDGgbQvMeQ5DOZMbNtBBB2mwEuEmT5iuwBEeGS7ZUFOOfW2cqlaOPOoI6di5rUpUBLY8AOw3n02QdWs3G7CPipIjenaSQUP7oRdhHgD1bcrl10FCPvyP//wnWbNynZaNFquNm6ZIv4G9pU37FvLlxxPkt19/lyQYHrFO5kJiLUUb4Vwu6RYLoGWc0cj7KsQx7aeZkr4lUwdDcQDC9h3byLDhA5FWJCTsMoAcBzh+xPu9agiaN28qx548RL75dIJMRthzLj5FevfpHpDG61SG5tz5cSiw7xSwAye2Zf55YeThRj9OGz1HPOOXi6zOFX8xzjqLhnTVMAoMIxqJgTESq+o6F+blybwQXrDriisWD+AL6ldPgaEEZvgbg1s+B9jSew71mB+9Qmp0xUMlumyrNBgzWzbed5yEb4fAQA2QjrTrJl6/ng85wO1IHhIdBIcUwUNWeRw5K4qjcDI9MvpQjM5/HD9FRj/ztmSByXJejoMUmvJ/8fF3MEo5Xq64/kIwMYj9iOedMR/JR+99KXnbC1RaDAn1QGoJl68/+0HOuWikXHbN+ZoNPyqxlkOcHFlx3mvB74tl7OvjZMP6TRKXGCf9wXjfHjNO5v2+SNWX4eGhsmjuUvn5xxlguqHy/GuPQnU4T6ZPma1Mt2HDJBiADJXiylJNIiIyTKb8OF0lr9KScunVt7uc/LfhSJDFtU0vODdslsgQHEFJrbs4+kP5fKARaRIaitEX88xOg6KQkb/7xicKegTzbz6P1TTDkNezLzhVw0wESD//xGtKR6qKbfPnAODLTybIjbddhrz1kAjQi+D20tNvQkXbVMKRXjrmw15CHZRDTXrHfTdAbdoB9RMmCyBBPvHAizpXx2+sMxqlfPPp99J/cB+55c5rJDYhFtJhhdbDrBnz5LknXsdAJVOlMS8APgT+abl61NF95NkxD8qYF96RVcvXQEXcFIDulV+nzkH9/QjaN5Y+/XqqNMc5jI/GfiFvjfkYEnYhpL+a4zkofX735SS59f+ullZY+kHpjpIcyzj/9yWwlm0lc2YvlJ8nzZSCvEI58bRj1HCIzMdxDgUOFAVqtadA2/JGhEgCjDxiX/xN/NM2Qd0EKS0Wf9BcaZcHOEFAU2e5wM6uHDiytboojZGLgilyQGz4CaJCIANpNXHxzr5TkEMEamEZj2Xt36yUmCv6SkVCuB58Te5Y30HukAOcGTlAHwzwioWkQyDjO6qZpoChbk3fphKSmsI3agB1klumT5qlDLEA6iqO2I8a2Acj+Gg1sNgOK8cvP/lemkDyO/PvJyvIUb2ZBxP/Lj06KEOlii0nezukRhixfPSd9AED7zuwJ8CMKz+CHBsERXOI6JRY4iEJJKckQ/UYrpJKWvPGkG5KpAjqR65Da9QYhg8tUhVcmP65F58hq1dsUKCZMP5nGTp8gDJVNvIySKScY4yAqo3S3LEnDpbk5AaSvz1PGWtQLvTWrhlho1XDEoShpEiXAMCd+csc2Y4ycRAQDmYeExUNaawEdIlV1eI6SGd5kICToQpOAR0bJCfJQgDRM4+NkYL8QlVt9u3eS1q0bCbr1myUJQtXSPrmDHnyoZfl7gdvlIFH99Vyt4MkRDqRhqR5GuYkKzEnkIKyu6EGXLtytTzxoAE3qjC7UwpPbSKLFiyTrRnbZCrmCBOTEuSG267Quli8cJk89cholaxR7Wo40r5jK6hCo2TWjPkSA5UvR48tA6BEyZ4DF50LRbwpzRoinlCVsr/96id5/eUPAGxepBEvPY/sJkkNEmTpopWYM9wgSxcvl8fue17ue+zf0qRpIwU5WuompySBVmXyw7c/o45jpVnXthKXEKPSdn3v0NpAnJ8/DQVse+KglINULywaG42dL6HPzRJ/Qbm4GkNaI0xxoIvRqvJH+FNL4UApbBwKcgRJfFfg5K0JTXhTcOMLAhg+BaLVO/Wv+IrvtYGL3xECA0x/CaY0oCLNGdEO0iVUpIF0bPqMsr65Qw5wrBiCWmbmNvn2i4kAigpVV86dvUhmTp+n0gjVl4OHHgUmmgy1WJ689cpHsCQsgfosQa6+8WJV/1F6m/nL7/IIDCCys3Jkyk+/ytDjB6iK7biThsgxwwfJUVBfcl0d3Uuj3pCvIMEVYj6NxgtDjuuPOS0jXdWtNDYQzu1wbolWTLzSwOTeR24F414u/7ntcajLypCP4WDclwK8OJflkwbIX6du7aHaXCTLlqyUxQtWQLXZTeMiY587a5HOCTWGReAw5JWApHOAZqhVKxs0NKFj46L6MRdAznkiiq6UmEgTSl381rptC6g6ExS4mF9KKxFQzVEteeKpx6iaLgJWlndc94CuraMBxwWX/k3OwRwjU6HBDY16Phr7JQYCuTLmufdgwdpWLrziLDkJc5G3XP0fyQVY0qDmoSfvUBUjpWiC3jhIypTsqC4+5/yRcvHV50gEJMuNGzbLnTc/otaev/06V05asU7XGH70zldqgUq15pFH9YDEeCVACXMJALEirPvLhzRFRvDUy/fJuLFfaf0mN05SKf3CS8+CyrgQkmuoztGOHjVW2wtB7YZ/XY46H6h1VYq5xJefflsmTpimi/hff/E9ue+J25UuVE9zDph/IyH5n3Heyaru5FwjJdr63Jm1wTg/fxoKVEtvwBC2aR8G603+94t43pgrEgPVYnK4mvIrxOA7/1H9oT0fz8FOYUoRiiwA83f4i8LglhqvCvxxnk4/B/wwLKOIwTxeNMArBN/ZtsvR7os4/4wwDOvBOwbhUpyqkkoJn7xOPMNa4wVhkHEYMK2v/eKQAxyBg+rChVDv/TJlFrmrqhppWGINFUaceqwaUlBioXVl+uZMlV46AzyO7N9LVWFUJaa1aCat27XUtWqcH8rJzoMhSALAsZ9KDUVFRVCDZQAcy6UBJBnGx0aUn1uI9VxYHI1K3alDw7AVykbKPz4jSR3l6zuOkfDeWwkrKAAyG2A0QIRpU71JVd0MqNUIcGzcUyfOlBJIf9QbjBg5TJIbN8BcWYmR8Dj6Ms06KDuMER0DjH8c1sN9A/Uc0/XCiIPGN9xZhVJk4yaN5IxzT8a9kUY510SAa9WmhVwJtW0oGjcl0B++myqZW7M0PVqwnnPBSGXoHExQ3fl3SJ9LIPnMmj5XQWkJgHzgMUdpXKCGps38cKeZCk+lGnXQhH/h/GUaZ+NmKTLouKMkZxuAuKxU4jGw6NWvh86bcs5xW1a2SpcLoB6kqrAJ/F//r0sxxxYvJYUwNEI5udi/SdMohKdRC9OCwQqkR60LpTV2usGcZmw8pH3MIRaVFCNMmIw45RhIxEfD0KYQdUSjkyi55KpzIcmtgAp0kyxftlrn3bjUgGQmuFEK5ML+Vm1b6nIE0paDFFvvLKvjHArsKwWoNFSJDe1KZ39h/t941AzxvPK7SIMwSEwAJM7Po90rlMGfOvCKuo5f+NbGSXALQT9PxEByWzkGvXAaGp4Ym6oodYDsxy4iWO5E60z0uWgAYiwGh0lh4VKCtr4dYQvBT/SsNoaNQk5/XC0JALisE7EcqJCGLni/kzxpovXg55ADHIlFZkKjkUSMvPnMkXNlhVfn1gYefaTcfPuVKh2wzjdvSFcmGwXV3pKFK+WqC/5VzWzJFFWqAVPjyJ+WgmTwXE/3DaS1nzDftHbtRpUY2AKodqT0SNBQww7MZ+3OMW/2T0ENGVI9N5tRoByBpqUNsAJl6D+4l3w49nPZtjUbRi6L1PiCpu0zf52n4NaoaUMYXvQVLwCWcdDZa3BeWHbz2aVGNVzkTN8cqXEgwHlFrkm79JrzVM1IQxSdx4SER1UHy0gAJNBS2l25BCbCmucqNfenREraEfRpDUkVcTsMFmZB2mJ9rF+3RQYfa/LHsmt5tRsZwCdIbcvMgkRcBLBAR8POK7ddf78OWEyZ3FofnOwuhjFRJTrZlo1b1D8tIrt26wBVa4JK0SrFIm+sk3IALkeoTFOd5tk8B96olLYSoMW8c26wG9SinH+DLwVP0oJqXKolV0FypNVlBgZJzdIaawn0ByNUGusUwiCnsgI04uAnkNbO6sNkxvl1KLBnFLB7PoagL1ZCWkt5d5G4X50vkgxwQ9+hvYFaRzK6ms6+08jZC9n29Qq/BLgktHs6Sm8EUvvN9BGoQvHei7S5Ts7vxqAUfYtgFoq2HgdgbACQS8VAMAuamO0VsCCGXxd4ir8AFpX/+1liOjWU4maxWDCOyUCAHEUB3XpLU60/P/8fAA6MDyP0PhjdX3HdBbB6rYKEtlWeeuglteijyfu6tRt0zgVVqfMrrF22Ac7xREJKUlEKVUqw4fwOP3IOJw6WdQS5t18dJ2Nf/ZhVosYNHbq0FQ+Ab+2qDXhjmgCvCF7LVTPVWm/NA5me/Qv+bJghv8GoCZIT5+IGH9tfPoYqLgPlWrV8LYxd8iQdi6XJRHv07KySJ6UsNtldMVO+Z5mZJy6naAcLSAIWF3lGAqi5k0lXzjFi6QSXWlAqdnNfIYbRsCycUQczvxWUMhEXwYRblJG2tjx6xftQGMvwnmq8mgX2tfNYHQaDA8598Znxch6Qlo01jmATCykZ63sQX0qjJMmCdGekZj+sSDH/ijS9CG/jNL3U5J/v8KEmOt7BP4GbG2JTklPVMQyCuESAw1sbDxkA06HhCvNGia2c6kf9Z/zhg8YdAn8+MBxbDk23dqrOk0OBvaIA2xwNoLiTiA/r1hIwrxX21AwYk6AFoj/4qSlAm7NtcId2Xic1bamIk22Tc3lxWNKTiDafDk0J+ziN0ExrZn8x/b5nkwRpFhspa7YXy/LsAvAeQhRXGfglm5IbeElKRKQ0At9gqCyAnJugi2UD/jUFkvDWAim672hYriEM4qRBnolBo6k3P/8fAM6MQGgswoW7xWDObaAmmgsT+8/HfafSCueCbvvv9SC8W9dDkSlzJ4/ewwmKF+IeSwtQ2Ry56EJJVDoZVcOGyfLV5xOg0vsSaqxoadu+pZx/2Vkw/+4BoFkt997+uKl/Vg/agWkUgboKPOhIJjD/VceHMkv1re3IBKDKlQ2ajg2QkgoBafKEX7CfZBbW9k00YIEwlLyOPKon1GpYnweAI7Nm2J0xVWNkghxgZNV/cF8ZjnlFrlOjzhwpaRhaTVJa0XVeeFvlNnGpD/hjvAzP79GRUXiGJ6RXAItDN07dZWdh62YZeC3EzjKcw6MlKgFoh3wF/OoaHqoKsVaNnYvbd6V2aYotza7TMqqqj6NUpK1xo5xcfjAHRiRUrfoh8WXAmIgARUc/jIf0tmkqXfSroSszSKDk2r5Q0I8qRtKvDFJoUXGxdmB+Z1uhYx5o2MOyc80d2xvzE6gqRlqdViCZHZ7te+fqUGDPKWDasJ7+jbbnglYn5tnfsGAbGpbGWHMJrYG2cTZE7ZA7j5kcxbRk3AR4BPtrGACyMZe+4J5zacoDq+MyaZejj4Uh7Ut6NJcPl2yRBdisIRp9Gl81Mc7HVUKwyCgtlnJIcg3CI6QC64zzMQj0eJEy1tS5ZmyQ2DXbpTgtXjxYZ0cIrY8S3EEHZUpK1pFpaV3gBZlRKaStCvyRUZ91/qmSChUSpZxpP89Siz+OwjvCwi2elnVwC+ctk9y8fFjypUqjlIYAtAZYO9UYqqemEgPrQQ9G8zN+nqNpcJurcy8+U445bgCYWwQYr8Fy5oY7XoSAyVqAZNyUBrmImKo73pu8GgDid+v4nkViZbOhhkGqJHCR2dJRguSGzUcP66/GEDOmzZF5MKAJQblSIXX1H9wbTBnWU4HwlqHb+O2VyTAhpkcVYglUjVy8XYo/0ouGFHRk4PSjUgvwwuTbhGMXYfyV2AGldz/OBVI965aZ035X9SIXqbO8lLy4XnARpGf6p8FFx85tzLyeyYjGSxNkSn+62B4drCnqi1aVDLMBaxf5x7pIadRQAa0R1rWlYp40MQFr2QAuLVql6q4wBNHFC5fjb5nO1YWjkxG0uGaNi9WVxogTpdAy8pnAxXS5NyWz1A90JDCy00/+4RdIaFCzxkRqXXAd3Mpla6Fm3aTLFWho1LJlGiROMhdDI0ZiYtcknB+HAgeEAhhiBfoKNAdYDpD87SqRnzeLNDSm99rf2Qh349gu6cP2ZYZh/w6F9qZZRBTOrHNLDqQwgii/cTxu/ZNnhODdnIxcWZxVIGUAVIbV73XiZDqcw2NcKZDkwsGj2J9cyLcs3S5R0zbC3B3GJ4iTcZjhKALVI3fQAQ4sVsmhTAqE1xE2KwT3BBgyXM4v0eSei4Jpyk+jjR9gZs/ROY0l+g7ohXmhcslM3yqPw+x7wvjJMF7YLFswr7IMhgQfvPWprpNjnNzrkg71AYa7EXMshWp8MhvSA9Vu3MkiLz9f1q/ZoA2IIMo8ePDHPRezIHURrBgXhQojWZjGxncETs4rEbDWwxR/HeLZDhVkOUZq/M4GRv36sBMGaVp63hzAlGfNnTDyGJUkqDKjX2XkmtvaP9W00jyYvBA/Gb35M3SzcZh0EUcg3zb/jIf3VGF2wm4oAzC/yfk1Lgt4adSbsgxzmjnYa3MRBg4vPvUmFn5v1rro17+nLgqndMi5Plte7gm5AnNfXHJBi8eEpDhYrsJyEYYgXMT+8rNjVXpei/hpgLIa6tnPPxwvn37Ixe0l0hB1fNSgI7WOOXc3Gv4nfDtFMmBRmw2AnTp5hvyEetf5MNBR1/xhZMnyrV6+Tjat3wJL0QKkXSiDhvSVTrDqpCHKbCzKf+35d1EfW3Qx+nQYL72CdXS5qBdKicMwyEmElSnX4ZEe/FNasbbYUBznUOAAUYCSDsZy4B0YLGMgGwaA82NWhZxBp0TYgdnmeN2J076P98E8gKBD0GoMSYuWkznghcWYTwsBgzL+wUsQxvAD8EDwtGIA29aicqlEWH4kxGkeEI/yC+SBV2qEsgBwReC5nJdTh3fc8iv8+zWqnvQAQXkkT/DSBePxz/9r0OAg5pPjZFtZvFJFRaajaikwGq1rpM9R/QmwLuRuIbSGnDb5N0hfA2UAGNkl15yrx8dwNwvuUPI41l1RPUaArIB0QyvLE2AOz70h+0AFOH3qbGV8H7//DawXfwPIFWicVFWRea4H8D1w9yg1eU9r3gyLmglAlfLjd9NUCnn74+dNPlHpPjQko0JDJeO5YaNkSYBxTElJhlrn3XLVvQCtGPnPo7dIa5wnx30pCaTtOrbGfptdNS8hIV5p266lDD12gH5jw9LGqM1yR+Lzm0onnGcCvZR+ZMpwNizvg+mKLwiDzgXwNDQOqEIA0lzXx0539U3/wALvHF0nNvmn6bqfJefzSgBkhVgbx3rp2burXHnDhTpqI3gkYH1Zc0heuuEygO2hu59Wld8V158vx500VEb+7QQdbHCbtc0btihwcv0gBw4Ecs5DduraHssVhmkH+fuFIwFEG+V3qKRXr1wvjz/wAtagxaJThsDSMV2aY13hMKh4qfbs2LkdDEUaKyhzA26GadE6VW7/7w264PvaW/+BZQTPYb1dNnZ1+VaXBVBS5ybNBFTSZMQpQ+VspFmGZR1KV9CCgyhqEGrTjxR1nEOB/aMA+ZmCHNph1EJsfIyd+/2woFQA4q/e1AY3vrJO+YIyReNH1ZKQ3JpAcosG/+L8WRY0OEQro4MwwMM42J7JJtDEJQL9LwZr7qhxhA9616T5RL/V6eCefHQb4mwEDUok+mEpBqzuBGhSFmdI8q/YaH1wMwnLx6YQkObqmzskOVZiVpOXNYNRNCqAXBe0VWKXQbVHFdaIU4ap8QGZ1BdYwM1FySlYbH37f/8pI88aoZIeGXgWdvOnpSL9cakAFxhTUuFaqNPhj5ITpYylWGbAuaXz/nGGWhxy417uJELrQorcbXAagDJfjIaKsQciG0B4KCdemU+MYjCq4fE59EyGzT00yTApCXJekHnIAWjQCtGn5TFzRbQUJMih1Wk83NGjAXY34dybbVym2dU0GTZQ/tHRj3UqRQbitt+D/ZiGTWkNjRUADgFTqmDOrwnD8IRxUc2Z0iRZ7sTJA5wj5L6OhShvBhZjF4E+DRokyokYYNx5/426KJzgxnhDPKFyIdbMcfssqkcprWZtwwJzWGJRUqWZPteyXXLluTCeaYo8QH0CIKRVJZdjcPlAn37dVXVII5kUDBDu/u+NchrqiGfaEVSzMnMkE/mgsUjzVs3UiIT1Q/qdf+mZMBYJ1YFDBiR43eYMZ/Oxrrv36Cx3PXCj9BvQE2rVSJXYMjOyAIhcPpEi52Hpw41YYE4rUrO5dqDdoWKVPjrAMiNZS2vn6lBgfyiAYaUO5IrDYQw2J0P8GcXi4k4l7NeG2dWKnn2MPZ3fedX+DX+80hIyGm0/DdaOkejX22B7QJUiga2GP5h4+cw/glU5BsbNsKFB28ToAE9SThBIl/zIQqN5xXBUd+ZiUBmBdFTSpCYM2pLwhZslH/fc7UTzFoilvlxcPm8B8m0IxisZDlU5eQCWYlcO1ERYX2WVvPtYKhs/N9HNTM9S89VEmHE3apqs0oWNliopLr5O35hJnFGCNseOFlzLxd0/WBFUfW3AUTFkzlQTJsLUnLv9JyUlwX+N6o+qNPqNhHVl6zZp2OOyiSazauVaWQN1F7ff4nowMmgy/2VLVkECyZCWbVKle88uGpa7pHAERYtFSiWUjugIIlS/bdywCczUBwkuGkz2CJ1zY1k172gQ9985CovRZ2M5RKI8gAXSXSDJcI5O4yAa1XEaNvCOW5Llbs/HaNCldOKOG/bAVdIh2Bn6AoDRsEkbromjZJYamB+zfumPc24sxyZIW5sgMVF646bRBCduyYUuopKqTYNhCDxbAeRLMGfGUxVCobbs0aur7ghCwKZUTBDhPN5GSMe52CKNNEjA3FfTNOw+gp1UrLN54HfSmwvCuTE1F2/TXyok6mjMpdGfdXYdG8vHXUi47yfzR4mV6ycJvNxXcwvWPNL0PxaLzltisMRlAlznZyRw0Bs9lydVmPTCJK1lk+o6s+W1aTrXvx4FOM8U4w6T6RUb5ZySmZKCjY45TNyxp+6aNlwRGwIRqjwuQtLunCCudxeICzv1676RQX2e7du2OW3raM/s1cyD9hH4pcowAQPJUmiRssE3StFvtevzp2545hPvaYTFPF/ds5UMa50ir81bL+NXpUsMQArdReO26fKqvQxx0TF9SnBlSMcHXuzKLBT/OV1l7VMnShR2XSEMcCpnTxzn7bAgQtKx59h5IU3ksWhor3hmOJKy6e9JPOqH2dMig7aVkRIfmYz5dthVgDZahiBa1I3zoAOcjjaQO1YapSoaZJCQlMKMqXygwCgE/eohlzA4oB86AoJl7HwmI6Qayq4h4UJgLtom09aGQk9wlLrIdP38DmmEB2byO98zD1Q96ho6+GXTCo8K1+3DeHwP1Yzcy5AqTWaE8VM9aYnJ+GlsQbBgWOaBW0rR2TS4QP2uWx7RdV9c7P3Ei/eqepJ+GM/uKplxsJw6/wX/XCOo6TMzljCMKMgxDOPkmjTOc5JmnG+z761XMntKWRo/DkB04Th1Dgy8SIP1gWjMHFUgAMPzjyDHDZg1efxwbRmlPM5n8TsdByG0EDUbG4MWoAvzTpAJzodV+Voac+kDE+ZcXgUMYliXwbSmcYka/yANLhGgkY11jJflYbmZPgIG0g0ckAqPNi7mnQMaag9o9EJVcnC+bJzO9a9JgQMBcNoX0B2qcPxN0/M/E5mfYawSiS50bJ9os7ZNmlcw5KDaBY4GJNx5JF61SII1auVSgN2eGNocoRWIB8+2LzIc+VApBndhAKYzOjaTk9o2wkkoHvl8RbqMW7pZAY4hA12V2VBhhuH4X2MFb6CFJV0lPLiy0M+Obi7pb54m7lKAE70y4B64PwvAgSMcXEcC2golqJEpKjVBJzImOm0UJB7+kbmVYldt64cEtUSlPzJts0bLVDTD6P86/mhl6C8J+Al8YzzWAtHGyyvj5U71Np/MFw1fyGwZA5m49WevemQLt86CYx4IKrbxMD+cQ+RWXIxz+MlHw/glTIGTcTOOnTn6peN3gg3noYLLxgEA/9cNb/PNK7fPYjRMgv74Z+Nl3Eyfzxw4GJxgmvRn/AcDFv3bOAzdjfTJ94xHjTUCfhgn61YHEko1+qqJNzgfNXngYIIbPjMPNWlZv/aqZYJK0vpheOtq+WHB1e2YLv3RcfCyM/rY7+rJ+XEosI8U4K4gXI7Ks95cOGvNH4a2aNtloA3aNstHfvKBp9EOIBo8QpcB4SXn2ii5eXHPd/zHfsKwem+ac/WCbk6PtEmKltM6NJWejeKxFRekHfhJwtpWiHVSzEEy+BFBnOm6ofqMhFaIFuOWp9AynKpKOhrYQVzDCc/Q0BRjzS5AN5iPqKd68HPQAY40qKlQVA2pG+RINH1HOoPYWoE78cMg9pshdE08Ns7gCqC4btdtmOgMo7fM1WbBhrFx873NE1Wm1tl3xj8Ueah7u1+k9cOWEgKxmZsMT5/6mwIxD00dCOvQUjQups10bFw14cxdcDkMeASlz8a9C1VxcJw2Dht33bSCny1d1C+SYscJ/s73fKarSze+s994z3QZH71rB+RLOJuf4Hjtvc03Q1i/Ns6abzbuIFoE8qSBAj9182fLZtPSfKF90V+ws9+D3zn3DgX2lQK6wJuBIZC5ePyNNlv+mH7ET7aNk39wHjsxPBLLgMokIysXu4lAO6U7LnkgsdGuw7RX204JZD6sf/NhbRq7TTjm+tolRMuA1CTp1yxRohCoFHPqHHB7vSGSEoW9KGPCYcgVL30G9JD23dtLAxiOzfplrnw59lsJx5FeNk/a5/gASc6F40n8wEYXtFce7FFZER9itvRS3/Xn55AAHMlhGV1d0lS/R2UFM8Zgf9V+Ai/rPlu/dd+zWQU7+91eg7/90b0NY6+a2zoJ0JyeqsufsO/jmlUbVc05BCbqcVhvRmMYG9Zed5Xmzr4rbeqkFxx+Z2H4ve57+2yvwXHszv/OvtUNuzs/went6r5u+GB/O0ur7rud+bfvLODtSZi6fpxnhwJ7ToEAkHEAHA32WmhC8q01NCFYcaDF+esE7MT0wBv/lc0rN8qv30/HjkdbJTsjB/yiCACDdWnQaBElfdDiV8ASOBY8hoZuDbARQ1p8hHRpHC8dGydILNT4sBOWcEhlyViOgwkVcWM962CsGe7dKEXXusZjbjpSVZ9uGX7W8bJs1hJZuXS9RMZHmXSYR3YU/OkYUgfxeFmDzaYw9ej3kAFcPaLJPmXVGjJQUsvH/oZ9YdlHo4n+g/pAkjOWk2w8luHuUyJOIIcCDgX+3BQwIptUUb2XjINJ1+EgUxhhUxOoDshh+YCvpEKSOiXhaKp+4sfxVGdcdoZOa2yHsdb8ibNl2oc/SBbW7HJc2wzWyIP/MVJatWqKAXO0xMFqOJQfEB83oePSgDBYW2bAeGzCW19LJngQj8DxVC2Q7l3ayOArz8Qct1dyC7nvpA8GYEnSGQciL8LG8FGwtnTR2trkUCVMF3ZF0jPpcAICJvawYbROkAR81J+LA3AHqK5soyXQXY51ezSo4SiI6/usgYoDbgeI2E40DgX+pBTggugQ9HkvdwBplSiuX9ZDXYhdTIBAuskF8w3GQBxUiQ4qxwp/pZTCepz8gcuNSrGUaeW0edKxR3sZObCHVGD+eQWO2pr16mfS/Zl/S9O2rbELFOb3AEmMJwTx8S88LEIyYIFOg7dh5xwvydhpaM3sxfLza5/LSuxSdPnL96jhCYbbSj2dj6ONqDIqMCtIlcRh5VOU4rCIzg2DPh/UnDTKqo/OAbgDVGtsFFb1wCjtQmIbvf2ujce+dK4OBRwKHF4UUOzACQIolbdTipqyE9wownG+TSfWADDqjTwDf7QXMHPD3FYPp95jDu7iR2+QhlhiQ8kJgWUopLeV2PYvBEuSysphLIIlMwxX7QBS5WUlcuSIATL41OMxBQgDOag3O3TuKIPPHq5ApyeoBKzYq8PxhvEE4mKMHJQznzwpvCoRqk9s3RVeXKHLD8xeuLVC/6kfHIA7QNVjJ4F5resccKtLEefZocDhSQEek0PQiirH0qGjmkoC1sBV5RWJG8uQBJIZ1tdg8AvwIZIQ8OCfkhQdbdp4FwH1YxR2airH9nd0XIvLkzc6Y7MIHhDtw3KAuuvR/AQkBK7Ct8JSnNqBZ+bDX1Wm64i7DTkSe9nSwpopmPQ0cv4wzwQ1vof5pCscp4zDBNNflSP+tFgpw1xgGPzUNdCqDv8nvnEA7gBVTrBkFnzP6C34HaCknGgcCjgU+JNSgIIQBTY3gKY4NV7i+2Az8q9WiD8We1M2TtNcu4uwEUJZsfiLsHs/gCjGFSE+bOenZz4yApj1+101J2NEY26NG3Bwv1cC284GzAQ3y2ei43A6PSRBPV2DqlKAE5csUeLjPZcCuGElqZbmXHyN925Ycrqisal9NLbZi8GmFtlbkAePVHZvLLSzxJRcXVj8k9ZA7Ww5AFebHvv9VBfcGOHO3u13Qk4EDgUcCvzpKMDTBIBZRirD/FXxmZ0ketJacemmkJCyKB1FwKgD1pBhiY0kD8uKvvzxVxiCtJRm3NkJJaLlJA9PtoC1AIcQx2OLuzTszkPgwqxZLWekMsNneKrGgpkLpR1OA4lOiFGQo2cPxENKYJHVKkovTvvGxhupbcTTFLs80boSm0sg47iHySbAVzo0lO1Ht5bwApxcgELVN/Uky33YAxwGK1a9TEm8+p6FPxxdcBmD7/enrMHxBN/vT5z7EjY47eD7fYnrj8IEx0+mo1ZwYFx/BVer7H+BPnMg61TNNCARsc14Sr2yfWALiT6qmfgnrBdpixk1qAKhENQkwyAx5QNQbr/nLWnXqon06tlWunRpLh3aNpMmTZJ0v9v1y9bI/Rfdiy0Em8vDXz2jEpxRWdaGOb6LiYmVCe98JE/c/LjcNOo2Oeuqs6XEW2okNaSTg71h167NlEVYGrB0+SZZuCFfYlq31YXpNHjhnB0dpTusFJeqY5qLLxY7GAHs+MoCrnqqJz+1qXSQMm1HGMHR131X95l+d/YuOI7d3TMs/yjx7+x+d2Hr2zdbPpNv6PTRmIPLvj/lCY6H8VpFBd8fKleT1o5lq/l24HKzQ5lZ1qB2dOBS+nPFxHIHl91Yzpl6Phh0/nOV/kDlBuAGOqr6D1cCR/4t/cXVMkFwho2ZaAskRbCjEQmPwlm0ZL2899EUef/9iTJl6iJs/F4qYSFhsnLWUinJzJfMFRtlE46z4hZ7tp6Cc0wtUSV2Plk0dQ52HymRxZNmY9NlSHt4r90WDXj1mgz59PNf5J33Jsm338+RwiIclkzjFywbUItORMgxnJ8btSdjQ/MT2uo8IS1DoRitl5qogy7BmQ5jhr6mYowUFaxHtn54pbPPwX70w178WLUg4+KelKwg7mZv3+9FVH96r7ZMhm4ebAsGvTstoDAis9/2tRAMz3i5RyjPmapE47ebWu9rnHsbzuaB1zCofXRD2QNQtl3l41Cnt6t8HOr3LDfdrurbtC/j51DnrT6lRzrqll1U62GrqyKo+iL+NUCi3k036kUlITgSvlNqagLV5BHdW8upJ/WWtNRGONkDmzMDlbhtcnhsJH55bzZQt3tWBtNDzf0DfTQce+1yQ71wbC5BcDMymVmiMPCoTtKjeytJx+kdixevk7Fjf5TMrfl6aDNB0EWgg8hTVYa9ffunSfER2IwcO6bQIMaAXHCq9eP+oANcMLOwQFN3891gP26sHyMY1fWzt+RkZ7QuDwd18pknAtj3tjNbP/t7tfHuKp4DnV5wOjZtpsG9Nouzi3HCeQzWxZjR3p6krXGw49WQjWM2PFIKxt6Y2MMxCweNxsbF7lW8wfnc13vmjXngACUbpyzw9AaelhBc7n2Ne2fhbHrcOzUHJ0pE4USKPU3P5ik4Xubdvt+TuggOa8MFv+M9okScvCq3rPv5D593Fa+J27SjwvwiiYE1H09soP99TesPM3MYeqgGBFSPCxaVRX1TJWoCjEs2Yf1aDDicr0zKs7KwK0mMvDXmP9IkuYHyPfa39enbdA6vUUqIdBnYU44Y2lPS2rWQJjjtg3u9sh6C60KBjPUDiXDQ346T5fNWyNGnH4OptBDd7JzfOTDdtDlDUps0kB7tW8kR7bvI3K8myprJ8yUkFSpUzgtGRmPvTMzFYSN1X+uGUgr1ZEQR9rAEEIcifrv1YX2qroOuorQdidftObl6jhsXQ9MFf7PPBCMezULmYt/pzV7+MG7+cSf6R+59Vu6+9RGJgKmufb+X0f2h9+BGR9UO07GN0F7/MJJ99MC0SFPu+L9g7mK5/NxbcUr3UmXMltZ/FLXmH4BGV00jPDI8z7b7fc4iufK8W2XpwuW6c/+exvtH6e7Jd6YVAUDjEUhXX3ybTMFhrVwrxPfMvTVMIAAAQABJREFU64F2rD+eTrBx4xa56Kx/yrRJM3XbtT9Kz9a5rW+j0jW5U/ruJRjtNL4AqHEfQ5vOvpQ/OD/V9Y2ImGeW/feZC+SGK+4WHjIcHn7waL0vea8PYchYSVefTt6ae2+XOKkYGC9VW9aJd8liHBWQKTlLVsicKXMkO7dAJv0yX2695015+H8f65q5KpzCkYh9I+959yG5/NF/Vs+R0ZIyuNmzLvmuHIPbnsP6ypMTXpQ+xx6pG4trPth/cPjprLlr5Np/vSpvj5skU6f/IjMnol37AGbb0sW3Ead3r18hVctXib8VgDE1WsJgGOMDD7BLH+oD3evm8aBLcLaTspM888hTOOE5U158+zGo0XA+ERYrsnKsH+qXX37mLVmJs9ZGvXy/nqPGs9p215FtWBYs+N6GoRqgACPRQhx+SomE//h/V45x0Nnwdf0FpxH8zYbjuxgcyOlD4+Au+ORpGmY36dqwu0rTphOcdvC9Dce0vBipFeQV6vE3fB/cEWw85koQJpMMPNlyI5+RVIugbsoxktO4obeoxHZj+Yi3kqpB0NSmaeO0+UGsKPC+0a9unDZuvuefF2fvFYAR0JLMvttZGJsXGz74ym90Owtn/ekO6ygjjxDKx9l2PEmhbno2DXu1cfKZfxxshGFwxYNZ7U42Nv5dpR0cV3B89j4W5t+VgdM0zKkPuy+HTU/jRb3qZuaBxs931kXjcEzWN8/VY3tg/fI0C/YbLzb2tfUdnL/gexuPc61NAdazh90Bf76YENl2UQspi/FIo/ZuifjfdPFU4gSO8Ah54slxkvzZLFm7IVuKUQdPP3W1tG3eEkflFCi4REIbw/VtPCqKcdq6C6rC6oT98BOJPSjZD3WzeE8YEIpTFn4ZOaijTPhsijz46IeSgPPqKhKxBCASJwoUF0KixDFVWbj2ipGs/3QRH9biUfJkegqS1SnUr5uDDnC2QtxYOMgDPHkaNJ2rCmJ6oIasH15zwcCycVo3R8vsWHrFezpWLIPwkX7pbNjge/qz4TgaDwWz4RlwGh4jKoKciSsQH+NBWjYOXu13mw6feW/Tq/7O2PBeGxSi4Aj4vTc/11HwiFOHaTwaL+K3YVgGuuDjZvhsvwenGVxemzb92nuGscYfxi/mqTACZ+Pmt2B/9tnEz3yb8jM+48DUMVE97p2vNP8nnDRUTZa5iTRNjDkA0fjQWbguh+lR/UGeadMhbfnflqV2mjX+EIDe1B/TtuHpnwBJEmnU/IHTeEBD5oF54TPrmI7PDG/jsFf6YXR0Ni5+o9PX+p1+auqW35gzthvGG462wyudic+8t2nYK79Zx7Pr1qxYJ5MnTpdjTxgsrVo3l3IAE2nFcwyr88X0ESg4b8Hx2Pj4nafHf/LBNzjRPkWOPvYogCb3ygiijS1XoCwMy7iYP80jUtJyMU380TE0285HY79EOcPlxNOPxeABxwkFyh6qhwwjv4H61riYYwS05dZ4Amnz3nG1KUA62fk4H/Z1jMmqFG/bVHEd20fcS/MkHOr2IvSl/LVbsX+lSy5sFytdV8yTVbnpEpnWVMJxULMH2goP1OSeMBwEzHpk/emZPEiLXYCL1FAp+ou64WAFG+CKt6REytO3StmmLVK4Zr14tqTLEYXpsgT5QBVLeIMUY4DChedFheJOKpHiq3pLRTLm7zAPx2S4NIC6NNMDcFPP3EEHONLDdoYwbNpJ9Qcp53ejEgx/UpJV+4FBCJkYicuKDIPkpwwBjSACOwHwEFJzMKZZ0a8VHuhgZHhkRlSp8dDNCkh/dHxf06lrGD/VlwQ/fqNUYA5gZTNBhcKogh2cjImMIBIjGi7E5FY6No1QnKlE81z64XueMMsivfP6x9KyZZqcfeFI3TGccTMNlpGSbEgAbCvRCBmnzRsP7FRVA94HHzBKKbbu4Zw2DOnJs+Z46CoZKMGIE9FkUkyPZecRPpxHCYFOngYaPAuOUkWwBEd/PIDUg8Y/7u0vMfGdIudceKpac5GWTE/jZnzwFxcSo8y6AoyXEg6d1iG7INMGGEViwltPEEfeuOE0y1HtD/EhQO1nPJE+oTg0lY5SI+O2tDN5MPlgnjg3FgKa1aVPDW3CIUWhvTEuSCS2HvQF0ndjEWwYRtCkC+lHGvNMO00vMCDhBL5N19Qf2wviC2gW1G+gXjk44BmCPH197doN8vqLH+DU+O7SvXec+DC4qz6UF+FJax2IIKyVymxcwVfWSyTafQUk57de/kiOOWGgnPq34/VUcuaXe54y/6xTtlmeZsE80PHE+wpY0uk+iMoAzUG6HFgxrBmwiLz/9ufSpFEjOe+yv0FKx+a+gbKzvmnpZ+ubcfIAW9ISVDH1TWI4bpcUMG0Hn9HUU8anS8TELHHlQFJmCEpa6I/cNNmP9tADtiXHRJTL5imzdL4rBPzJg9PtQxs0kAicEBDaIFFC4+PEwwOhUe8uD/gkovHzQFSAmg9Xbz60NziJoHJ7npRvzZJKTPlUYf6cbS8S8a3Cifa+Iiw6b9lWB6/MBg89dsUnIs0kifl4m0T+Wii5F7aQ4jQAagXPo0Magb5K//XJHRKAI0EMsw2MukEsCr6QA2rRyvqxHZzP61avh1VRksQnxcniBctlCyZKExPjpTUmXRNx1IRlrgxDUCjGQadLFi2HFLhd0po3k649Owc2PjbqUMPwedCRyOpVGzT+MIxeO2BhZMPGydUAVgSV5taMLGnROlUBbTYWWzZomCQtWqaq6nHunJWyeUM62miUtO+EsDjCIjc3T9av2wSAhXiPIc9CbHBKAGuOMDE43oLMciXWtWxcv1nCMCpr16G1NMKJAwRWglsO5igL8gqkPd5nYKJ55bK12ghTMbncomUzHUbpvnYBqpFBbUSDpbTAk7R7H9ld56bYeSyTIhMtKSrBnMp82QbJOLlhA+nUpbUaajA/2kPg3wNmn4tOsR554/yWCxL3PBynUYFO07lbe6UBaRaNwUMW5khn/zZfGWQHlL1xk4bKMJkt1gNBjYtVly5ZJZsQXxRGqR3hLxn0CwZqW8+80pGRbtyYLmtWrtd4WrVJk7QWTQA+Jl62B/olqJOhs0xUPXONUItWaRoHOzKdB3lYt3ajrFqOuQVIIG3atpC0lk2x4JVrkThwMgfQLl28WDK3bJMEGCC169gKbSpRDXUYB9PTf7jyFHDWE+suEjtL8KQIm2+C3Vq0pTjEkdQgQes4Y/M2iU+Mk80oD+ezWD+p2FuQBKc2ISM9S1XxBDe25Rat0zDyNqfS23IyD8xv1rZsWbt6o8Rh13eWex423uXAqhXKnY86y4ZVXPvObbVdzp+zGDRrytxLHr41Q5pMm4CEAkn6lkwcxVIiLdGuc3NzZSPaMBmfBwdzzpu9UI9p6XZEJ9N+EAfb6TYwyjmsbwzo2nduLY0hRbLMtv6YT8ftmgKUlgQnfFdF4ay3TZgqiUZ9sJOiDnnxg1l4sY9kmrtYYtGXSjwYoLNroq1XYlqgIidfipetYpUC1ELQfhEU96HYI5J1SkGA23dRjUk5TrfdQrvhgMfFUw1Q/xGIM7OoXFblY2kADmr25m4VV3JjnMGDAR3bBjPJzGzFYdNNo6QiCZoLLk7nVzKzeuoOGcCRhqiL3TqMF833gEdaVD523/PaScm4Zs9YoHVAiYkd99Y7r5JefXtICUTxyMhI2Qzwe+LBF9XAIgxSCxnFoGP6qjqHkpoPoxxei8HwX3zqNZk66TcwP0g8aGic37jsmvNkxKnHqEHDrBnz5NnHxsjNSOOrT3+UiROmyn8f/ReYZKqMevQV+fmnGdpIWaQEnLP09JgHNd0nHx6tI/gNG7bIf29/AiPiAnnu1YfFDfPfB+4aJUtgpMFGw/kOMvzb7rlO+g3spXmdNX2ufPDWZzLk2AHy3VeTwMzKwEjIsP1y9vkj5R9XnaP+SCYyrffe+Ezef+dzKS/h6N0tTZo1ku49OykDpZoiHKf5Lpy7VJ59fIysBWhgSK8doU+/7nLvo7eq+o1lJ75EQUL9fupkefWFd8Hc3FJUXCT/969HIFF6ZNToBwAYODIDHebbLybJ0kUrwPRgCIQ6aZCcJNffepkcO2KQ0pX0zYGl4wuj3pBff56tUgSZcUJirFxz0z/kuBOHYDu+wEnoqB8DElyGECJPPfgy6Dpd+xpPZI+FBd8V158vJ51+PIus0idBfTXKctMV98iKpej0aBEE85NGDpNrb7pE6cCO/en7X8v7b32KtT7Y3ggj1BCU/bpbL5WTzzgeYTC4weDhqUdHA0zXabkouaWAuVx7yyUyCAfUcmSteQNxeKXEyDP9Hv7Pc9ILh9j+8/YrdTDEQdV2AMkdNz4kp5w5XC6/9lx57vHXtZ4jIsPkw7FfYOCSB1XlILnnoVuxZVKxvP3qOPn0g/FSyiPVUbBQ0PbUM0+QS9H+PJwvAb3omG4MrFbfR5v49P3xKl0vmr8Mhh+LJAZHprz+3ihhm3n+f2/IQ0/fgbp7T1YsWS0vvPWIzP99iXz75UR55Om7AXjN1PqORlaff/StfPHJ9/LN5Hfk16m/m/pGPRRjrvDumx+RAljKjv3kedAL0jzyMuGryfLKs2/LtoxsqYTUT2C/9pZLZeix/XWwwnyynzlu5xQgbdzYdosLp7cdlyKp87Mk7NcCccUBqDDw4h6S1LxUweBkdlWJDG2Gs91gn4ChjqoFXRj4GhFPYQjt0CUlOCk8c9k2CY+DhoI7/aOvF+WUSgzWrjXEkgQ+0+lAKdCWsDeJTFq3TbYWl0s0Yvah/Ye0AgBiwFuF/OmcLvLobx0j2de1lgrMGboxB6e7l7AP1NM6PmQApxP3ZEYglGFq7NtQcyhkaX1g1FLzRD9kMtgxTSZ+N00GH9NP7rzvBmXiiwESb77yobz0zNvy1Ev36WF+27fnyuMPvCCrUHGXXHmu9BvUGwxwtYx79wtIfdukS/cOyjiq/D558sGX5Jcpv8m5F58mg4cdpRLOe29+Ks889qokJifKiacMw+Q6Ni0FEI5+bqwuLzj3otMVTD997xsZ//lPcuf9N8pQHGaaBwCbMXW2SgX9cPbbky/9Rx6+5zlJa9ZYbrz9cjVUoOSQlZ2HnQYilclSQlsBSe4VxP3qi+/JEX26qVrVhZFSBnTmP3w7Rc4892TpeWQXHZV/Aub2MRg2JYyhxw1UJs7n0c+9DXDsLedcNFJVXmReDMt5FQ+NeHB9+Zk3ZcumTHn0uXukQ6e2kDA3Q8JYraNAioSch2PbLcWoru+gXpIKiempB0dDWk2U6/99maoJG0E9snb1BqjvfBjJL5BTATiDj+0nG9eny+svv690p6Tbpm1LpccToO+c3+bJlf+8UHpBRUfJ9J1XPwZ9x0hDbDnUDVI1lx3QGfBAB6fkhc7494tPl779e0oWQPLFp96A+uwLnK3XS5pjmyKOTqmS+/6bKdKte0d56Kk7dTDy1ScT5LOPvgOIxst1AKiZYPqvPv+O9D+6j9x0x5Xa5vguGWBMoNsCqeqhe0ZJEer3mpsvka5oG5mQ1j9EWg9iEHLvw7fKiNOGaZ3qhrVoi7bdluIokjJIUfbZMBEMWAAQtGKjCv165GHyT1hQ+/qncunV50vXIzpoupw3I7i8NeYjGYJ2N/KsEWrlO2H8ZPkAQEh169U3XqR1znj5VwKAPuHkoSpFP/bfF6Rrj05y4eV/U1UqVfaUKn04uOtlgFAMjEXOvuBUBbRfseCXdUp1tVFdE6Rp/l+u+xKWlVXKgMG9JRVt8/H7XgBtEuXmu6+GSrpYknBPkKUl87IlKzF4OA7zfv0gjWaqEdjzT7wOCTBNWqJOKJEzn47bOQW0fYM+XtSDpwJakvNbSXLOanGvxcbHkQA3L75lZ4gnK1s2FvnlpyY58vf2jaQEAx81CuIV//ifjsYiEbHh0gBH8RRmFEkJBotu6BBjEqMkrlEMwI39CB5RJUybt5EYQC3BerdpMGIJp74xCoP/jklSMThVQhdUihRAxckEoLUpPCdNyiG9eUqNMVn1cgcmXg/dIQM4F8BLQcsyC3QgA2em8khg8y9Ql6gHitdcD9eydTP5Hxg052domXgkGCDnXV576QNV8wwe1k++/vwHmTNjPiSuqzHqv1BVfb0hqXTv3UmuvfgOnX/hXMYkSAi//jJbLr7yHLnlrqukGAyL81NkumefdKV8BgA784wTFUSYRruOreWeB2+GxBQhURiRP/PYK8r4hh0/UJpCikxKjgdjx6JIMEuO5uMSuqAZ+CUSee3ao7OO8qlGTQFgPPDkHRIPHTrnwQYN6isbATbjMcqmCqptu1YqiVCivPjKv8tVV14gGdnb9Hyojp07yKlDLpAZv/wOCehoVZ1+ATDrClXSQ0/dgQMQsTkq5pCO7N8LEu+z8sW477ALQohawaVv2Spt2jVXKZGqvUSo0Lod0RHMGMYEAHs6MigytBSM5pIAApybikB5u4MmJTinKhTh6MgcL77ibLn02vOw5CMfAGxUonfd9DDyNkd69u4G8JkkP0/8Vf4PNLvy6gtke2GexMXGKkO8+sLbIKH9qrRmfGwPhjkyfZ/cfv8/AVIJoI9XkjzxkgvJ58G7R2HZSBbUeC3VLxkq8//IM/dAwouEX5/06Yczs8DoP0e5/37RabIBOz4UYXPZ3njfuX0HySncLqf9bYQyds4rcSBA0B/1yv0ycEg/KcS8Ra8ju0mPXp2FeRz72jjMdQ3QNkD1D/OobRdXSjWcg7V5t+8JnPTngSTaAerClSvWaNttjrZ7RK8uUlRQItnZ2+WzD7+VowDYT7z4X9PeUQVHYq3T0kWrcRL8z5i3PU1iIZ3Z9U6sl6apjVXdyfsEzO/1QL0UAIhCwLgoVVMN3geajJugbdC5WM6ZYnCjeUK/w7jclAHvmHejpq3SwUY82gMBkGr6nj27SC5owXAooMZ7FgDz6hsukfzcfNCzp87x3YjlA7/PWqB9g23CcbumANsEexkuALMqKWkcLbnXtpWkx1aIOwt2BGE+qSzOFncK1MQnt5bPTmkvHVehPS7JlUJKUQA0XWnACOBsu4tPjRP+2cipRaTWxs69k5fCjg/LALCBSl6ZjFueAWMWH1SVsIge0lJybh0gW1slSPtPN0n0m+uw9s0r5WdAbd0Pg8BiqC0xGNI8ox3UV+mN9DokAMdK4VCCI0g6qqxC0dGqcMIsNznTnbMBd+yI7MTU+BL82Dg4oc15EZqnl2COS78jLEf07IQ5YBp0CzDfFY8RPCW9AkyUl2BEzVF1+45tMULvBMkoE4DpklVQSTHe+XMXQc11N9QuZm4uBMYVBKl1mEPDmFjjpATUBoyVcyZ5WPDrS4qVo4f1l5m/zJVbrrlXhp9yDBhLd+QlDcwwRJmsMWxBowAjperUMiqajPMgwmmTf1PJcjuY99JFK5VJcU6EYM4RMxkQ5+Wy8nMA5igD/giiDRslSQbACmSRTZBAGH44rBw5t5cHutBFYj6Q6s3vod4shdoyEXNA7Tu2kUk//CL/vu5+Of6kIZBkO0IVl6w00HpBfLbTkFGWQjrhM+lM8C9D+lzSQXVkJFRcjaFqpTUsdyen1NUMzDepQbxk4xRizuktX7xK1aezZs6T3yHtsa45wvRh+QJ3Q2d9sZysAzpemRbn37jEgWvcFkINl5OVoxJiFOb8CsB02XaqOEhCnQwAKEVEhqpqkHHEwox6AKTnSRN+kbmYg+rZt5vOhVHduhXza5RMOVfIAU5JcRnmclcoaLTr0EbT4aCC0g7n0PrjSJKJE6ZJOqQVSmNkFPxX41i3fK7JP0HQvDO0ZJ0Z4yQYc8AIpxj160N72EjghQFAdnaO3HnTQxgwGOOcMKiSszGCZ51RpR0PdS5iQpykD9Y3lXu1PfMFNQtsRzz6JAz5Y9ZYN5zHgzyOuPO1Pphf5on/qBnRHLP/4cbEC8mB9Y28qi/kj2rKMvzFYM6UhlwcsDWG9J6PU6VL0Zb5rjXmMpOSkiRzM+ZwUHf857jdU8CuIyMIcX/KglZYPH92mkS/tUEKr28t5Y2g0YiLhKVkmGRiXu25jqVyW9kq6biuAIefsg2Cd6LdE2hIc61XGH/Qkf4qp2kFm1bJ+qxCXYfBErIUass3ywpl1SpIbwkR4kVfc01aJ8mzMyWpbSLmBtGvimE4hf0yt53ZFNaTWI6AKqVqku2kvlfvQQc4VoYyMRA9AYsW163ZrJ2Vc2bmG0coqCZUSAVUPFT50QCAnUuPewCFCTR0HHnS0S8txzjSVKs3jHLysbwgJiYKo98YjDyhDoBfxk8m3KhxAxhYZOl8WwWYCOdxOnZsJ0kNE/Qd6lLz2LFze8wxJKOTQ+wH0DDftORjPB5YgPL9cKiLwsJD5IfxU+XtVz7CfMtrkA4wf4K5lyQAMSVO2yrInHhPo4sNazfJKMzPbQdQUrJsgiPo08EkMjDpr3vBqaqQzAJMjKCAUTjDM2+MIwoWV7asJcgHXRwADN7V8lI9IhyZE08FpmqKjO9WqJ06dWknM379XR66+2ml7ZU3XiAjMeejDgMPa5DCuTdbbn5j+c0zmaJp7QQjNn5u28XvNI7hfI3mDRIhJackWHvR6CEc5UZATYZxH3FkV2mFwYBOgutbjHsQH4GksKAY0vFozF2tgMq2qxqNlJVWKOBWYb0QOzJaguY1DvOlbBu2PRD0ojFfR5DKxCBgOID84VF3YQ7qJ4D7dHkL9cS0bwEt0tKaKvhEoa3QaIIqa8bDfLA8EQBUBREwelXtMZ9adKZPhyvba6BcpIspoX40PkAbXYyLL0pDSMRujJmKIA1zENEGO0m0hZqa1o48LoUxdO7SXgE4ESBrNjlAGsgP4+cAwbSHQA4Qv60nhqU/SrAcYHAuNpBRvDd5qmLbwi3pZPyb9wznYRsLBGB703j5BmVkwU19432gvvmdu7pw13pbtyY253dXFLBq7irQG9PBElLilby+iVLeHKd3p0VJJdpHKHiWD/XTFBsbL8IOIved217++f16GTQvWyrCMPgl/bX+aqfC+lRn6xoPvI0CkGYkR8oLp7eSHxt2lk7NoL6csEZc20pE8nGUzjbwEG6iDKkx/+Ku4m2ItZBQUbrBvmy7M+0nELFJpd79HnSAqyYW+h079c9YPb9p3RaM/Juig9dIC9Fg4OmrM2XThnRpDeuwGAAVR/+2lzIe61AN2rkM04UXMICk5ASV4rgTSnOY6BfBYsiNDkvpKzsrVxkwVTpmsWwl1HlHyHEjjpa8/AJlIGwWjI/WSBVc3AqmUB1/gAGwQ3M93/EnD5PBMETI3pYrH3/wNdYnfQ3VY6xchzkrSo10ZCnKyJFtguxLo95Sq74X3nhU50gSYBX63P9egzHAYqRFlZctnbmyvCyyLTclQnPvguWmGRzQmIOSn7GGBAiDUavUB0ZPBkvpNAGWphddcZacdvYItVB8Y/QHMBp4R5pifc1AHIJI0LZ9JBh4mAsycTI45k3TDmTSAKLO4GlmSSdlnEg/ISFerRJHnHwM6rulFAO41JKLieA/DX2s5SsDc/BCc38aB02B4c6TUN31hLqwAUDyGwDU6OffVgmSaTAPzE8u1GW6/CBAa24BRwvQaEizNBSh+pVqwS6w/qQqdc7sBfLsI2PkqYdGyzNjHlAgoZUtFzFz4MIF3YwbWANVYhEAOyQgGcMYQCsBWYf0whbIZ4KU1TZwIEFamzo0eSQjorPAQTAmaDVMSVJLSVrVXn/9JbJte05127OVUAbjI7YXTRdxaDsK0F3jRPqcmzb1YtKz7ZSAzDIwo5R4mU+CmtKdfQlOB364ap0xXrZzPrO9oiwaL9/gvQbEL+ubr7gxL53WBf0HaKMvnZ/dUkDbF/sJ64h0R78taRmNdRcY4MGYg+MJDofLQOsmaCvrIbk9eWpr2ZISJSOmZ0o0pDEf1hN44JH6JVvnmijC6qALVx0wIfxvPZLlw6HNZDokuEbwlHkDtB5nd5Hwjfni2Y7jbxpgz8rmCVKJeTuV2LDnZAisJqmaPJwcaXpIHE21acZO6eI9WIVxMTdVS1xfRsZEE+mvP/0BZs/5AJAhkOBoJGEmyNlZgysUbFcZAEe2dKxcGiJQ5fMt1HM0sKAkQ0mCJtVzZy/CPFUspDGv9IL0xLmo98Z+JhvWb1EGo3Gz8YFxkDkah4aIdNkwyQLMFfps7MDNeY44MPKuPTrAgvBSmM5HwSR+hWEQ9IsIGJZGAEy3GCP31SvXSnMsW+gOC7xQ5I+MjGo4Mg/OeYViTQsiQDgzlxNcXuaHI2cCNplWaxhzpDZvouo8GkxwDo60pOQ34evJOprneigv5v7IsGmNyrm1oUP7ywX/OEPVvjSfJ0iwbDYtuwgZFNUwUZCyWV9M1+QhkDcwTfI2MnllqiphYL4U6fU/urdaZFJazUNdKpsE42SfJqMPBjemyzktzuOsWblemsPaj+DG+qE6LB3zZJzLJEFVokcmKLVP/WmmWmrGQSUdi7JzDm3yj9N0KUU3GGFwJxfSl8s1qMq+4OIz5SgYVKxCHRTDinHQ0L4wKtkmszGPFBMTo0s9qN5ev3YLVMgzIWE1l2bNm+qaL4I+6yQC+WCboppzDQxuigDcpDvrtxCWhyVQ9VHzwMEGmQTxhGUPRX65LyjbTxrm4zp2badzgDNnz9WlGQpArAPQVMGNAQOO9CGmaNvjAAfx8gWlT+aD7+kIWrxn2irFYY/6FCx5yQdd1q7ZILHINzUbrO88DA4wc6f+GQZVovdkjFw/GoW2jEpFrGj7FrgJknyFfsZ2bfoFn1lCx+0pBawkxyv7DsGNTgeMoC/fc+eTSqwBSMFAsAS0fmpIqvz7qi6SCcArgeSXz8EV2gKriNM8obghG2R8BRicb9hSIB+0jZcbzusg0xtESiPEw35HEPU2jJHCo9JkO+b5Cvo1F29ytHjAE0OglqQalXtOss1ZfrCn5foz+zskEhwJQKs5qq1GQp33xisfyL+u/Q+AbKiuaeO8yIxpc2T6z7/JCSOP0bkimr4TqMgQqX4xndwQn6Nlgh8BjRIA/XAOZtjwgTCd/1TnKLpjwnzThs3yHRg+pRqqncpgoMC5mPP+cTos9N6U2298QI6H2Ton7qn2W4y5H+7mMHAIlhagsTB+qvlM7wYjwcj+2ceeV5AZCMMWqunm/oajLaCW69INa4fgk4vDuUHtclhw/vTdVGymmqTr4FpCNUfrz0/f+wqm9Q1k+pSZmC9apI1v8oTpOrfBCGhEw7LZ8pJ2vKdxBUHfBwOMREh/F152ttx72//k7psekdPPPQnfQmXi99Mwt7hEGSu7zjYA6P13PKWSTNv2LbUs330zWRkirUrN/KCJXxs2OgINbhIxB8R9H3/E0og40KZrt47aqWjWTkasHRIdgeBGhloOVaLSF3XctVsHufDSv8mrL78n/77+PsxZDoAxSJSuveL83GlnnwCLwA4KaiwXyxqFBeFNscSBdfXph+OlI9YkzsGSkKkAm8ZNUuTH8T/DgKUreDt6P/6vWbVO7sLeopQSQzF/9QOsKmfPWCh3P3AT1j42UYvC3zBPOgym+QT+bVuzsWRhDjQDaWrEQqvAqdhf8qG7ntblAi1aNQMYFKkkzvm4q66/SIElFmWnFuHnSTPUyKVHr44KwG+PGYd2MBpLUPpDO5AjP33/ixTC6ENpA7pzsEZpjRaJE/EtHGAUg4Ec161dfPnZ8n+3PSb/vvZ+LNgejoFKY9RLlbY9rufjchC2VzrShwVm3XBtIiXLmdPnyUTMqXIJRTdaBiMs/TMOI8FBXYm2QkOsCBiOsJ0XAvBZj7SAnf7zLB1UcJDGeEPAJBtw7R4GPBNA5+joCBixdME3DEa0f0GaDDA+qjrZ37honwOt4DaqGXZ+/pACpk4xhkBnp9RGx3rAkMOAXiS0ORFQSRb7oLb0SypUjQsaRkp+bIjEQ/LaAm1DbhEtZ1UI1P5XRjAEvyrAVnblOWWS3hcyG+qsKd6XgUeRyTMpGqG40TZrpBqkiTbGPHFZgp0rZJ4OF3fQAY6VR0ciUvVy6TXnYg4sRL785Ac1HVcpDZ2Mo8LhkNxuvvMaMFkc4c6KQNjkxkk6EudImnHwj9Z/HMknYATNtT0EIaoib/vP9bru6YfxU5TZE9DOPv8U3eCZc2ChMCQpA3Cejx0bOLrn+qI3R38IxkQ1kwdrSsJkONbBMcu0HKS6jXMy/K6NEHnkvBcZ6gKsM2Jn58hp2PDBctb5p6oBQyQYxFkw8X/l+XcxPzdGjR1oon/NjRfLA7AIHA31IJlSGwDOXVhq8MKTb4KxT1KpNRbWhtwFg3NXBI6a8uIkBEgYUYib7wjGQ48fAEvFm2TMM+/AdPvtGtUXTNTfwZIHnhgcC7UvSCtffTYB5cMiUzAoStKXXPV36Q3jGEpOHCxU1w/CRIRGAIROkheffgPm/y9ivWFjeRQWi9zsmHmjYYMyctYn8kiQj8PJwZQqEFzfXXrdeZBmQmUcLFLXrMDyAtYlMkKmfNo5J4JmwY7lKZXr/3XZ/2vvSsDkqqr0qaWrq6qrlyzdISuBJEBIgEBIJmSGNRERZGBANCAjo4KAOs4oiPqJMDoDijiK4jB88ymOC6ICI4rzCSowDqBsAQYVRZKQ7pC99+70Vtv8/7l1u15XektCmu7k3KT6vXrvbu9/r+7/zrnnnoNFyNvle3fdpypL3oRP3Phh+fmPH5Vf/eJxOR0vL7VYN0hpaA2WEnCZx+1f+ias+rAoHffgSixJOOu8VTCUwBwg1NWvYwE87y0JivdvBpZtXPuZD+F3D3dJINzr/+Wj8oUbbpf7vv8zleJJENNApjd9+UO6pKQVhkpzQJZr8DL0wL0P6VzVzV/5pFx25btkwysb5enfvKikmoGh1IW491Rh8lmgurITz91Ri4/A+r1VkAh/K795/Bm5cM3bVfJeCtX4P3/xOvn6F+9C2w/qc0UJkYz6zml1IBMOeJTYvfaAat0M7mVKLrj4HDyz98vN19+mSz5u+fpnVOqqwlo5vpio9Ib2uRici8o/fO375S4s47jrzh9qHYwIfc75q+UpOC3gfeecDy2Tz8VL551YZvDFz96OZ75K7vzurUrKXKhO60p/v70ENwn4quMCvuzo0Bm8n7Y/GgQ8ufm8/J6HaX7knh0SroIGYyXUl5Mxtw3CU4jxO6vAYvFZZTGphYFVY1datrRhyQeILYsHBrdCqvGyN6kO88kpaD1wgCb+fJj4PHHXPVt8rtwzxrb56+dzQ4It7ZPv20TehrKZdozdbjDllj90qppaod7YFYIKLQIJhleO//uaWD8Tf5CNTc2wKtuMt88ukFNMpsM6j/NC+jZaeDtkXr4Z8w7xTdwnDvKc5KZVHo1VOOlNoqSxAsmRHixaYXQyfUYtrOWwBg1v8PQYUQU1DbIhcQFtStV3DfWbIQFiAIHhAr2F8EGh2y0aTbBtqhlpyef7znKMirAVVnZpDNz0sELPEXRhxIGIiS7AduLNnqbolPoOwxoxqreoxnrt1QZ1H0Wzd/o5bGpuhgPq7TJrFj125FUapMrWh7phfbxeWhLywaR0yMT+VEC91tbepjhS7UnjBYyTKrGQwCk5EdvNm7dK8w5aWubhrWUKjG7gLQGWeEys2ye9RpQnaWzftlO2wZsKX0YoeRBf4kHPLVxAXriVStbtUINSPUcCVvZClbzHXJu4edNWEFxOSXA28NU5OCXWwgCOitguVZB8zDbAypUvN/OxPIP3kp5KGho2Y51WjarPWuD8uBZWpiRQeg+hpScH86l1UyAxdSqGJDBKvPSi0oWFrbRSpOcOulLzi8zZXhmMhRowH8w5Par8DsPaLs7n0fMLpRZiE8PLxmt4OeJLCe+zunBDno2wiGR702fVwTCpDks3tuNcVOdHiRXvO4m1Hn3gNVAS5RpALj0hOfClbCPqpYUlpbPZc2aooUwn1J1slx/i4re8RyQjrpPcvg3LRxJJ9bLD6yQGFbjffAnRe4i83FL9T4vXLSD7OF7e5h1xuHAdXxsiO9NSk3W7emOos1HVtuz3Arx89UF1RXUu50dJnr5ePqN8FqkC5zOGE/31aGUT+A8H+lQ4Jk/2Ncg7u56SuhCmSXA97hVw/10YX8Koqs8jIGruunWINNAl4QWwqlxQIdGlKdl2VEru/tmfZcnOLunAdAY1m5S8GSiV1rlpDlr48aC7UoOT966cIZ89c44cgnm7PjzHEUiEOVhdcsmBal0wDvh7v7+uii97WG0nW7BG8+LodPlCxUrEqSOXDBxzRtU+ypB/+AxG0wmpTkzFC3Vcf8/+9zHU9YwJwfkfh++M6oQhcdGDA24LrhlvIBhAqProf3Mt/HColmEKxodjfRxo6GuP66D8pDyPc3ChST7nFDiwktgo3bn5q6Kqkz9UPlQ0T1d1Acqqr0L0hf309fPh897gff0kDbbNRFUOBxmW8dfHN17Wy/kXvl1RFcgBjXMlbi4Ja4yo/kFZzotQrUk1K+c8Sq/JteF8CHLf48B9XgOXN6g1IL6nQRzohKorudbO+ZvkwOgdBjt8SnFmXUz9/UefqfJkf33/eZ7Wp6V4swxJkNKA4lS4n3xRIu7EgAlVqmTBfUpzTMST5Zl435h473iWmBJHPg/Em+2SMHQ5AbDitXPAJxFRQuR9Zr2sj3Vpv3jd/GXgnmp9aM+37dsjNqryRh6+2OizFegfvzMPe8f7yOSPFdvOuDzIG3xWmJf3m23SC4g/V2wb/Wd/0bZ7RtxA59vgOY8Rt/ywPj63rIOqe/+cBu+LL0+M+OJDbQceNcXfz/d6V1s+b/B+q79VTOxEMS8crNf3ZcD9Ltw/1jPR05tFcB7XLNafyS14wXsFL1i4X/RIEgKh9UCSOy6alpNjGVlRk5c55XjO8Cz0FgQPfcb57OGHk4Bq85fL6uT6C+bJdD7TGB/Cj7RI/tUuyV8K1SXuKx4LJcf9eb/GC8HtdxUlQeQPlcnfSP7IOE/RU5B49CT+lJIbj3ujBD94+TpIar0oz7qDA4EOJhio3FDECXi3viyDNwk3uBUIDA8D6/IeNdgW6/EGFcPVz7dwfnwq7QNH6GAenlfrNbTHgKRMegyqKbZDHPid0X1Lr8nn9Tj4tnicHEvPBj0ZZxjDc0yecHm9eo0Y/INpMJx53mPLfQ6eoEzuat+4perLt+/zcuvb02vAj4ovLRxUKYlxUPfJl0UW/Hf3wdfT31eSNBLz0jTd1e/a5XHeL18P++MTy/M4U2ldPKb1BYjL52HffSrN4+tzedAfkKlPxXLuuL6goH2W8dfk+84yPO7PFdsu9p/nfP2+vC8X/O6fA9So+Qd7Tn05Xi69z1Ab4Y/RPVQvnhffHz2BP8H7zf7xuQrm831w1zTwhY51WdpHBAAhHy+G2RLeLqomYTVJw5N4S0aexXatYOpiq8gRFTk5tyYrp4HsKmGVQjJxy1aYX2QSJDeqI7PruiX0ox3S9+sWCU/Hi9x5CKpKLyUgTjwA+9jhiVF8TAjOQ+F/4BwA8/Amym0QZnq3D/6Q3I8ed6qQSs/5H1bwOLPyOO8fxl583L7Ly7dgtjhwcOU51sHkt64O1zueCubhAOCTzz94HwavN1jWt+Pr8XX7+piX+/64/+7q4LX5aykc0Wv3/XbXVCzrr7GIsytVLOv7Udov5vD1+L75LfMyKWnxHuIfEwdshx2vQQ85fJHd3/kgrszh63K53d/gsdI++HPsS7Dvvq7S+n2fg3mDefxxPph+P9iG7xeP8bLddZWS08Cyvn5f38A6is+Iz+fbC+bzZV27rgyP+e/M67/7faIcptdebD3+pfmZl8kfZx2+rVKsff3My+S/6xf788YhQHgdxDAKwQssvnKRCrUkh1fk5QhIcFOwXCnCiCxMuB96l/HbS2HhdgLRClLf3CzpJ1olvx0vUVBR5qG6DG/Hmt5aaEjS7vnx99FVcmD+HVOCc/fC3Tk/wAVhdb+bwvnCj2jg+cHP+Rvlt77M7lW4Qck/PcH8wX1f3m99PYPlKT020ndfZ+l2uHLDnSteS2mNfO4Lv5L+Ux4/Hig95zKVlin9riUL9Zae03uKaoP31ufZrSuuOf3r8wQO9e8Oda70+HDfg+f8vt/6hkq/u475s0NvS6/L1zPUcV+Tz8fvQ+37vKV5BvteeqxYZ/CeB2sc2K4/UyznjxTzlZ4r/V4sYXt7jEDhBVCDlEJ6Fqga+QylK6JSWxmSFaE+Ob4qJytSWNsKzU0vstCZiX9hB69JD15O7m8vk/98BZqgzh06Tycoj1wirZDqXofXmuPoJad4T/XLAfxnzAnuAMbSLs0QMAQMgRERoCGYKpKQk/ucT6PNAOcApQ2GGFDNRxYh1uGCpLQsr5ErXmuUy5/dKr3waNKJ061YJ6eCOcpHUQFVmy8gxtvdO8LyeBtsE/AdXrlAazRCwV/Mu8HwXPKbIM1xbp5l0NTB8IJiBDfi42gZDAFDwBDYewRIYpwnI6nRIIT7/E+C6T9GIsLUR/iiQyQ2DYZvc+OyuapMju5Iy4on2qUF2sg+EhsKenLj9EQzohF8e2tEftkSkVZyI9pge404zmVW1SA0XceIg/kX4PRhFypC7D8lVd8HEisS++Pm81w/PQnv/ZW/+SWN4N78e2A9MAQMgQMUAc5TgpeU2EhMlNLUVJ8GJAVPJs6DCU5iriyyqka2qZWsyLHwF3nlQ/Uye9Mu6SvHOczBoSpyY3/qhp+tZam8HJPKSCeMU5rBXy2YY6OktwVWzL+rwrIerK9LNcOCfCdc0yGCQf7QhITgmkvdcpHcwIokRcT0UeMUEh0XfvMYCXkiE50RXP+jYjuGgCFgCLxxCHgjHE9sJIocSEyJZBt8jk7FMhochGwlGZBKo9quIVIKjETO/n2TrEZw1JnbutTUPwSW1JzIR5Jj4vzbrDicRsC7GgQ1SF8uKVeB4NrL8vLowpT817HTZQNCfUk7GLC6TKqQmWpMaDEptkmmHUutMIkXRhBWzv1xeQ4lQXUpRkJmH32jhTYmysYIbqLcKeunIWAITAgESGxMqoLkPo1GSGw8tg7e/L+zTdcxZv5pnjSSmbA8aDoYZDWI7dhX2+S0tTtkZmOPzrkx0gAZjcsASDi6LVAcVZT0W1mInOPq16bxB3mrsETn4ucRXWNDqzx1zGR5eV6VbMJiue3ZuDRh2dQWtl0TlakPNEv+vxHu6kqsnDsBDgDKsW6yh3QJKQ5M56U5Xs9ES0ZwE+2OWX8NAUNgXCPgiUCJDgSRqYJ7a6xJk583SfbxFsltQaSTI+FfcnuXnDA5JWfLIXLYb/8ks55aL5OhW0yjDIOdksy44JvO5ClB6Vo3klzh6vuXQFEGHCBiuRyYfZOOckQfQXiccx7bIqv+d4u0zqyW2Hv/WloQAfzFtm3ydF+bvLQN/n7Xd0rkX+slsrRKwm+dIrllVeocIAyi09hwvtFxjfzunTOC2x0TO2IIGAKGwF4h4I00+gtjYix2d5P0kdy66G0HBFUND0xtefla3wK5aM5iSWQjsnnnK9LYDt+SiFIP8U4ilPooMeE/VZgan69Egip+RZ1BAipIeyzMebsM5vs64ZYOccBkSmta5kcmSbJurpyVOlTS4bScv71eHp8Ep9vUnj4Jl35r2yW+bJLELqqTrtnOxym6UFBT0tBl4qSJ1NeJg6r11BAwBA5KBBivjYYkavIPSYxushrvgi9TRACIIFp3nipHSlYIfTO1s0JqKmo0BlwXJsVcUFOcBilR06gSIKU4slyQwEZCFmxHAxE3u6cVqSRIFsygne5QFlNt8HuJZQdNWB+3dSdiINIpAxtJOh+X2x7cIg3falAyY4/VOAbnGc6HysuJkozgJsqdsn4aAobAuENADUkoMfkPmIVzZbSUZOSO7WfWyNx3zZRunO+G6zoOuOoICa7wXtqwRdIgGlVFKpFRTHKENoDPcIzH9+gDumIR1qMEqfViH+SpDlBwrhxzbRs37ZANO+BEXd3iOavJxo4eOfG0+bLmqiWyA1EyOlEHHTtTOs3j+jSsDupTAh53d2Rgh4zgBuJh3wwBQ8AQGDUCzoy+QEcgjQwG/jJQCgdWhlC6rmKW/M8N75FrPnCKdGNZQJoOw9WJbF5+vx5RTuAnNAwn5pEoAh6jlBqmsCwIRefysFX9415stS6UQ7dcXdzS+bI6GHcEWF/fiEgDdNqN45DimqFGXb58ntz/1YvlnhVnyZejh0sXIxawLCry1pqsm9c+3pMR3Hi/Q9Y/Q8AQGJcIUIKhVxCV4jDg5+AgmZIb6Em259LyyfgCuaF2GRwip+QTV58uN35wlXQgYgDDczFu4Ib6FulBsOcowkIlF8yVHGIZMmKGEhvq1sT69uWDapSG0F4GoZLiCDUVnVbr1uChraf/sE37y343tXbJ2actkvu/sgaxNitkJ6K7fGD6ErmtfJ40w9KTJMfQO+oEGpKgv3bX0fH514xMxud9sV4ZAobAOEdAiQgDPReV5ZrSEkWYm/yySmmL5uXm0OHyj3VLpCOSQ2QGSEj5sFx/9RkyCUYkn/zqwxpNZUdTu6zf0iZLJ1dKzekrpKf+dWl56kWd5IrHItKNkFpM9ESyp0lVppgsSySiCNUE91yQ0irmHyp1a87TWIXZdB/qz8or6xq1vaZuBId++wnyb587H6rLMkQIgeoUXNYNYnz/lGOltTEtN8ommfZsO3Sb8KdyXEpC3c5LClWX41WaM4Lb0yfH8hsChsABi4AahxSuTueYINnQqGIwVZdKbuC3HFxfSX2PpG+tl+a/qJCr3nu8fOKk5dIGbyEMF8V4j4wH2dIJzySXrJBkZUyu+8xPZSfIZdOmDvnLYyLSATY55LJ3SO2Ji+XZx/8gz9U3yzv+ZqH0QoVJgqKvSp1LGwF5yJMadYDZJsGLyS+eXC+MOr/69MVSvnihxBE4OI0wUwxiu6mhSTbtaIFeNSdXv/skufmat2n8OYaCYhxOxhPMItxSEkGeL+4+Uu6643nZ+cBWqTyzVrJYL0eDE2LgpNZixwYaoSCTT4Fdf2h/b43g9jfCVr8hYAhMGAR0sKZUhoGbrqw4WMP2EX8Hl6JIiFwMHX6+U7KIgp54pkMeWf+i3PZ3lXLVpcsRsxFR5CGJMTAtBbGOrl657LylkOSScsXl35Hn1zbImrOPAcnAAAUxFMuXnyAnLDpaHrztF/K9xnL56PvOxJxeVLoRJK4XMSiLmssi3am0VughAyAnQ+UoI/KDXz4vj+Wb5GNXnSFT5kzVWJS5QmzIBKw5f7+xGUYmzXLtVafL9R95ixIaYwcyliODCLM/Ncm4/OzxP8pNX3tEdv5xq8TgISXT0C1hWF+S2Hn9JDqVZtEmE18GKNVxHZ7ipp3GEXzlPN5YJiO4sUTb2jIEDIFxjYBKcGQiSG4cuDlGc6AuleBIKvTwQckqD0kth4jZOewnk1HZuLNVrvncj2Xty6/Lp686TY48rFZaYbyRg7EGp9NaIcldcMZi6bpjjTz06CvS2dcLtSFi4CD1du6SSqxZu+Wjq+T8K78nD//qZXnfmuVy0omHydwZVRID2bFTvSC8DCU7kGt5iGYtWAKAf41tXfLY2j/JD3/6ojz0/EZ56I6/laPmTJLWDrcUIEQDF5AXr2lDPcjvilPkpmvPkl0IkqqkBpVkGuerUnFphzXlrd9+Qj5/569lV3e3TK6OS64X14oYc+GtiFI3PykRBigAOEEi8eRGa0vORzrygxIT3lMUUPwdqxTs11i1ae0YAoaAITDuEHDDcR7O9sukGkM2VoqB2EhtThoJkhwHbUyvwTM/5qMaeiTT1AMXV2GoJHNSlUTk7XiZfP/BtbL2pQa5/D2nyIfWLAWBIEp6HyQjVNQEIrtw9TGy+HAspsZ8V6zMqTEp6fVAEqytTMm0ubVy7zcek26U+cnDv5Pq6pQcvnCGzJlSIXOmV8rUSRWyq7NP1m9tlQ3bO+V1hNXZvK0RUe9FnvzNOumCZWQKRNVDS02Qr5IbpFMGsu2AVHnOqUfIzGmVSm5c0hCCmpT5JidT8vDTr8qX/v0xefS59RJHPVOrEnptGnoH0pvAM0t+QQWgAcmqaBa8nXwhoBEKoQtJZTgOOlWqwx9PeMH8+2/fCG7/YWs1GwKGwARCgIMwpbJpoQo5Emq+Z/JdMo2SGvRqjtyYg2O007NxG4GBSezlXdLTjICicSeF8TSN86eCXF7d1CQfv/E+efGFjXLDR1bJrOk10g0C44jP7QIQHCUnzneRYFg2ApLryvTJ6+t2yLkXLpP7vnKp3P6j38q119wjNYdOllNPmC3r6luledsuiVWXy6L5U2QdjFX+/NImueCdy+WB2y+RR1/cIH9/zb3yf3/YLEfMnQqjEagUldycNMr9Q2dPxjIF51yZkmVZWUT6MP/2+W89Jp+FSrKvqwfzeAlVreq1Qloksed6sxLZ0A1DGfZZAUHEhEK9+jKAukBsBZRkYaQaJEjKA9FqAYVxTP4YwY0JzNaIIWAIjHsEwC5pUNwhkQo5KjpFnumDf8ZwRM3jnWrNWQtykM/CxJ7STjcG+/anYYnYDF+TKdAg5qiUDSmm4VMO0gjFonL3T56Tda9tl2uuWiWrT5oHQiCZ5UA8qJlzeI5B1RgljDa7IdVdvuZEWXnCHClD2Juj59chEkBSrrvidPnUFavl1u8/Kdd97G658vwz5LZPnytPvbRRLrrkW/JXi2ZIBnWdfPxc+SbWsoGCMHfnooN7/D3RkdyY2I8Y+vjn13bKLXc8Ivc98rJebqKiXFpoyQmplN5V9MN+Mpz4Ey1Se8khkqsEhVBVWiA2WlNCianE14R6Z4XisiwyTdJwqkm/miT2sUxGcGOJtrVlCBgC4xYBlU5AclGQz1mxOXJPerOk9Tvmtwpbzi/RUIKSSCcG6xk9efng21bI9DOrIMFBmsNcWhykFoURRzkkMZ0jA3mQ6HZ1Z2RyTQJ1gRxDIL6CSpCEQzGJWx7z2zXnLZFexHLrzWPGDWrKt65eJJdcuBQeUdJywVuOkjvnzZQzV85Xi8flxx8mK1ctkrraFPg1LC0d3XLcwpmKNdWivi0eIDGDn3VL0qJ/FYbIiWPu79ILlsuV714JzspLD8plsLKbc329XAcHQuzFYvU8SP3J5nr5Qb5P6tB1Lkqns2dUC2rTAyC8ELDLyfnls2V2uBKeXLDsAPn4GcsUymbaIX0SWHYSF8sLgqVNa1uH7Ao14e0CLL+bjnUsu2htGQKGgCEwNghwoTUGQ/VGclP3C/KNvg0yIxyDcs15/tBxEoN/GUbzLTC/v7rsEPna3JNhJRlDDhCJim8c6F2iNIMhn6UxqwcVYJbWkFQXFghmkMty5yAMglSQCwQG35UwTCHJTZ5coUYgVCc++sQ6WXTkdKmbWoF2EU+ufZe61KrGWjvOqWE456U4IkNNXnIb0CSuhcYxIeSPYu1dEl5VMnodjoh4PU7x6oQvXk8U6DzX2SAXv/6kbAXbVyix4Tza47wbZ9yIzVIscL8tuVJmRirhwQUqXIqpBa4Z0IeRvhBA1Et+iqYTUp2YKkmof8vKYv28NRRxmgQ3Erh23hAwBA4KBDiAkhE4npJa/iF+LKwVs/LdvnqZDMOTOM6R6Ci9tWA7NReRyyrmCwwkMWfWqccdLZTAFThISYpkxLFeJTeO3AOSG82dFIelBchHsqrEgM5BnNIU60in87L6lCMKEhb7jf7A+wg7T6nLSWmsi+3wr6+X+8GEvoDkGOGUEloLFoT3J1e8/yt3iFE+1CNH5ybJ8eEaWZfbIVOkHMsYnFoSlANyS8vCcIXckFwqsyC99cJ6Uufe9obcBrS+51+M4PYcMythCBgCByACXgog5VCNmAKpfSpxvCSgTvyPvgYwRRZeqkIyBQTTDYnkY9HZcnzVdGnLZ9XWEPoAAAm2SURBVGFMiVkonHNEMhI4kJq8iKfEU5rfM4vP5xw3UwokOTIx2GkvVIVskh8SGheE86zOg5G0+pPf99v+E7qjXSnkD+Pa+pNrqv+r38niesvjFfKOxGy5t3279CByeBrlWwty62nRSfLxxBJZEqmTjhyWFKCDKvkOeq2+1v2zHZ7gCnhwM8S17p9eWa2GgCFgCLwJCKgUh3Y5KPdB8oAbZLkuvkROhiryx70N8ny2STZiPunYbJm8e8oC6YH+LgSJiSb4bozcXyNlab2l3yGEcRKskEhy+y0hingH5t9OrZohp3ak5NewNp0RLpeFoYScE5slbyubi9hyceQJkNs+SG9B/qGQvSdp0Dm4NOfgWttkV7gFumWbg9sTQC2vIWAITGwESHIqKYEj1FMJLicR4rq4vGzOdkp9rk2qc1E5LjVVzRPg8kSlqIl91aPvPUkmD5NI+tf8Y9dO2Sw9MhOqSH4mhWIwKOEsnrM4Jc961e9eU26B4ai2LcvEpTpeK4nKONYO7tUcHG8ujU4gqhbY0tVfaGX0OFhOQ8AQMAQmHAL96jQMeZTkqBrswqDNAXoWDCfmRqpg5o91bP3zVRwb+Tm4Epe/H1k2TRZzThAqXdJap1pLOjUp0dCXBepQ9yE55sFfVENrTcakYwy90aR+FaUXzbUCWk1SFQvRm8dJeXxV2cd+jqY/lscQMAQMgTcdAS/BcfTjfyU6jIV9mH/qowmKHmM3/eDtt29618e0AzQg6QEuxIsIECcHGYUkcsa+4UIew39XP0jU8RBJztXreWuoi9YZRa6B0LcW3aIyLjzEv3wWemXsswVOaloyBAwBQ+BgQkAHbgym+pqPLQdwjq38cNhVAjyYAClcK69biQc4OEyKZKYSlgNon5Hx1Wh7FLIwJ0pXY04Cc7w1XCMqwTHekIqS2DKcOcmO7mLCeVgGMaQ6OY5USh7VGztclXbOEDAEDIEDCwEOrT4Nte/PHwzbIgZFXPx1F8/5I3u/Je2wBaokc5jzcwvk2YIeLfDS0PWrBFeU3rDCXYkM3qHh/DMCGyJKhXreVJRDo2hnDAFDwBAwBN5wBJTg8IcqyRA0w9EweAnOn9VERNc3DN+kU1GiAh811omb9CqNFfRhEFymKJ4r95mmcnhE7awhYAgYAobAviEAnlFyg6DmXIHhQA6R8aIIDaQqRQhe4eLU2lCN9UtwzODVlHSpEgVLlsfKwZoxbYkCIRuk/YklQ8AQMAQMAUNgfyFAnvFTY7T/yMMHGDx6Sqw8hqVrcB+m83DFqbWh+qEEx5M0NOGHifrNMIxLyuCXLIoQe6wcOfRDW5ORLFdYhyVDwBAwBAwBQ2BvEHA846bHyD35NCbM4O+zDE6s1d0Z7EWCU2tDtdFPcF5FyYxcEB/CwkbOw8XLkohYC1WlHiuqK5XvhqrVjhsChoAhYAgYAnuBgGoKUU41iiCaLKbJynIJScbjELycFaUXxlj9cAJXkeA4iUdmQ+KWvs0YCykeB2vm45Lto74TTArpjhWS8IarWCuyP4aAIWAIGAKGwCgRUFIrcItKaJSkeqOSiCUR7QDqSXCS2omAnzQvtjonN0T9/QTnKkahgpqSlVCCiyLYXjJZIeG+uAu3QJJDmxQhh6t4iPbssCFgCBgChoAhsBsCyivgHc9FFKhyfSEpD6cknoCgVZDeWHA06knm6yc4LcAWColSHCfyolGoKSEaJspTkuvCfBzy+Mk/7rNIoJgvbltDwBAwBAwBQ2BUCJBDirxCqSwvGUY7R/y3ZDKJiOOQ3sBFpdIbOWi41E9wzESS82pKX4gEx3DmiURCEvDDlumKuuk3ZVqW8YTnS9jWEDAEDAFDwBAYHQJBciO5hGH+D/8iEu5NSGWyCqF5YhJBpHQuXQvyk/IVWXGYNIDgmI+FfNK5OHyPRCDFYclAZWWFJMJVkgXJcQU45+mc70pHdOzoCITqq7atIWAIGAKGwEGKgOeKokaQQFDAggvkXghN3XElt2QygagB5cpBEbqNROI0WqnGUU8M8qff2bI/5xqERxNGhcV6AyoxwZ2SR2gCGpZUIWN4V0i6uzolX96LeTpPcq5xSnTsqK/H12tbQ8AQMAQMgYMcAQpB+FckKHIFMCF9YCfTDW8l2UqpSKWgmsS6NyxVo+cSfnyi4DVaftmN4HzDvhJWqpIcOhHDKnI2w+/RrjLp6umQTLpbwuUM+MceOrLTvYIKk+UtGQKGgCFgCBgCJLIQJCWn6cOXCIglAyclfeC3dAwGJUlJVWLOrbwc67Dhlqsw7xZELqhlDB4fbH83gmMmXwFZ0ieKh3nIj6EwgszRAAUWLWVlEemGKNnT3SXZcK+EELo8FC2ws9bD0qQ7S4aAIWAIGAKGgFtiRhyoasxCGxhCdPRYKC7x8oRaS9KghHNunBqj5BZUSfYLYIGptOEw1Yjeg2UIioBBomNjdMiczSHAXQYh7vDp7e3DJy1pmL3gG1gZXjEjkOooikLk00XiXgwdrDE7ZggYAoaAIXDgIYBx34//Ki/xOz1jISJ6KAchKQxig31HGVxw0ZgxqsYksJZUIaqoliQwe0puWiabaS+KaSXwemILVsy5OVVfkn1BcgwjnstmJIPj6TS2JL10FufSiPfqA6aC6FQ2LWnAvhoChoAhYAgcuAioYENW4yWCBSDxRPCJRjC3Bg2gmv9zyovEBomNywD8UgAPSlCj6Pf9uZG2Q0pwwYJemvOE13+OJKcdLxAdCC+PTxYWlpT0mD+v+y68QX852zEEDAFDwBA4KBDQkGu40pAGGyUXkOQc2dHnMUmPSwA8salKEqTHFBSu9MAe/hkVwbFOT3J+P9gOO+STiycHqY7RxUFwVFGyq8UcPqdtDQFDwBAwBA4GBMgBOTAd5DMlLV4zyYuk5hM1g8G0r+TGugY1Mgk24ve9aOiluAGNB1SlEaUzTMFFQGogvtJO+/psawgYAoaAIXDwIOAFoaE4IcgpTvsH/ggQ4N4gNWqC85X7Br1E57c8H9znd7d0gHuWDAFDwBAwBA5mBAbjgyBn+H2/fSOw2mOC842Wsq0/zs5ZMgQMAUPAEDAERoOA54wgp4ym3Gjy7DXBsXIvzfntaBq0PIaAIWAIGAKGwGAIvNFcEpg9G6w5O2YIGAKGgCFgCExMBIzgJuZ9s14bAoaAIWAIjICAEdwIANlpQ8AQMAQMgYmJgBHcxLxv1mtDwBAwBAyBERAwghsBIDttCBgChoAhMDERMIKbmPfNem0IGAKGgCEwAgJGcCMAZKcNAUPAEDAEJiYCbyjB+QV73Ab3JyY01mtDwBAwBAyBiYzA/wMmlHjs05bruQAAAABJRU5ErkJggg==;" parent="1" vertex="1">
          <mxGeometry x="210" y="160" width="440" height="148" as="geometry" />
        </mxCell>
        <object label="Layer 1" id="j7cPLdc6rI8j60_SisIu-2">
          <mxCell parent="0" />
        </object>
        <mxCell id="j7cPLdc6rI8j60_SisIu-3" value="" style="rounded=0;whiteSpace=wrap;html=1;fillColor=none;dashed=1;strokeColor=#FF3399;strokeWidth=3;" parent="j7cPLdc6rI8j60_SisIu-2" vertex="1">
          <mxGeometry x="215" y="169" width="426" height="126" as="geometry" />
        </mxCell>
        <object label="Layer 2" id="j7cPLdc6rI8j60_SisIu-4">
          <mxCell parent="0" />
        </object>
        <mxCell id="j7cPLdc6rI8j60_SisIu-5" value="" style="rounded=0;whiteSpace=wrap;html=1;fillColor=none;dashed=1;strokeColor=#0000FF;strokeWidth=3;" parent="j7cPLdc6rI8j60_SisIu-4" vertex="1">
          <mxGeometry x="236" y="189" width="384" height="85" as="geometry" />
        </mxCell>
        <object label="Layer 3" id="j7cPLdc6rI8j60_SisIu-8">
          <mxCell parent="0" />
        </object>
        <mxCell id="j7cPLdc6rI8j60_SisIu-9" value="" style="rounded=0;whiteSpace=wrap;html=1;fillColor=none;dashed=1;strokeColor=#33FF33;strokeWidth=3;" parent="j7cPLdc6rI8j60_SisIu-8" vertex="1">
          <mxGeometry x="237" y="190" width="280" height="85" as="geometry" />
        </mxCell>
        <mxCell id="j7cPLdc6rI8j60_SisIu-10" value="" style="rounded=0;whiteSpace=wrap;html=1;fillColor=none;dashed=1;strokeColor=#33FF33;strokeWidth=3;" parent="j7cPLdc6rI8j60_SisIu-8" vertex="1">
          <mxGeometry x="517" y="190" width="105" height="85" as="geometry" />
        </mxCell>
        <object label="Layer 4" id="j7cPLdc6rI8j60_SisIu-11">
          <mxCell parent="0" />
        </object>
        <mxCell id="j7cPLdc6rI8j60_SisIu-12" value="" style="rounded=0;whiteSpace=wrap;html=1;fillColor=none;dashed=1;strokeColor=#FF8000;strokeWidth=3;" parent="j7cPLdc6rI8j60_SisIu-11" vertex="1">
          <mxGeometry x="237" y="189" width="280" height="38" as="geometry" />
        </mxCell>
        <mxCell id="j7cPLdc6rI8j60_SisIu-13" value="" style="rounded=0;whiteSpace=wrap;html=1;fillColor=none;dashed=1;strokeColor=#FF8000;strokeWidth=3;" parent="j7cPLdc6rI8j60_SisIu-11" vertex="1">
          <mxGeometry x="237" y="227" width="280" height="47" as="geometry" />
        </mxCell>
      </root>
    </mxGraphModel>
  </diagram>
</mxfile>
